<svg xmlns="http://www.w3.org/2000/svg" xmlns:xlink="http://www.w3.org/1999/xlink" width="24" height="24" viewBox="0 0 24 24" fill="none">
<path d="M18.4632 9.81735L12.4629 3.60411L12.458 3.59909C12.2638 3.40357 12.0302 3.30382 11.757 3.29985L11.757 3.29985L11.7515 3.2998L11.7514 3.2998L11.7424 3.29985C11.4693 3.30385 11.234 3.40528 11.0365 3.60417L5.03715 9.81751L5.03698 9.81768C4.84582 10.0157 4.75024 10.2535 4.75024 10.5311C4.75024 10.8088 4.84583 11.0466 5.03701 11.2446C5.23293 11.4475 5.47068 11.5489 5.75024 11.5489C6.02983 11.5489 6.26761 11.4474 6.46359 11.2444L6.46376 11.2443L10.7257 6.83025L10.7257 19.7998C10.7257 20.0759 10.9496 20.2998 11.2257 20.2998L12.2257 20.2998C12.5019 20.2998 12.7257 20.0759 12.7257 19.7998L12.7257 6.78025L17.0367 11.2443C17.038 11.2456 17.0393 11.247 17.0406 11.2483C17.2358 11.4487 17.4723 11.5489 17.7502 11.5489C18.0298 11.5489 18.2675 11.4475 18.4634 11.2446C18.6546 11.0466 18.7502 10.8088 18.7502 10.5311C18.7502 10.2562 18.6565 10.0203 18.4689 9.8234C18.467 9.82137 18.4651 9.81935 18.4632 9.81735ZM11.7497 4.30512L17.7393 10.5073C17.7408 10.5089 17.7424 10.5106 17.744 10.5123C17.7482 10.5165 17.7502 10.5228 17.7502 10.5311C17.7502 10.5352 17.7497 10.5389 17.7487 10.542L12.5854 5.1954C12.273 4.87194 11.7257 5.09306 11.7257 5.54273L11.7257 5.59258C11.7257 5.1429 11.1784 4.92178 10.8661 5.24528L5.75176 10.542C5.75075 10.5389 5.75024 10.5352 5.75024 10.5311C5.75024 10.5228 5.75229 10.5165 5.75637 10.5123L5.75672 10.5119L11.7497 4.30512Z" fill-rule="evenodd"  fill="#200E32" >
</path>
</svg>
