<svg xmlns="http://www.w3.org/2000/svg" xmlns:xlink="http://www.w3.org/1999/xlink" width="24" height="24" viewBox="0 0 24 24" fill="none">
<path d="M6.82384 13.3045L10.6915 17.1228L11.7248 18.1428L11.7248 4.75L13.2747 4.75L13.2747 18.1436L14.308 17.1234L18.1756 13.3046C18.3159 13.166 18.5102 13.0803 18.7248 13.0803C19.1528 13.0803 19.4998 13.4214 19.4998 13.8422C19.4998 14.052 19.4135 14.2419 19.274 14.3797L13.0494 20.5257C12.8967 20.6723 12.7137 20.7471 12.5003 20.75C12.2869 20.7471 12.1039 20.6723 11.9512 20.5257L5.7256 14.3798C5.58603 14.242 5.49976 14.052 5.49976 13.8422C5.49976 13.4214 5.84672 13.0803 6.27472 13.0803C6.4893 13.0803 6.68351 13.166 6.82384 13.3045ZM11.9904 19.1248C12.1846 19.0732 12.3634 18.9675 12.4994 18.8188C12.6355 18.968 12.8146 19.0739 13.0092 19.1256L12.5003 19.6282L11.9904 19.1248Z" fill-rule="evenodd"  fill="#200E32" >
</path>
</svg>
