<svg xmlns="http://www.w3.org/2000/svg" xmlns:xlink="http://www.w3.org/1999/xlink" width="16" height="16" viewBox="0 0 16 16" fill="none">
<path d="M6.5 12.01C6.8 12.01 7 11.81 7 11.51L7 6.51C7 6.21 6.8 6.01 6.5 6.01C6.2 6.01 6 6.21 6 6.51L6 11.51C6 11.81 6.2 12.01 6.5 12.01ZM9.5 12.01C9.8 12.01 10 11.81 10 11.51L10 6.51C10 6.21 9.8 6.01 9.5 6.01C9.2 6.01 9 6.21 9 6.51L9 11.51C9 11.81 9.2 12.01 9.5 12.01Z"   fill="#000000" >
</path>
<path d="M14.4625 2.9975L1.5425 2.9975C1.21943 2.9975 1.0025 3.19729 1.0025 3.4975C1.0025 3.79771 1.21943 3.9975 1.5425 3.9975L3.0025 3.9975L3.0025 13.5075C3.0025 14.3081 3.64097 15.0075 4.5025 15.0075L11.5025 15.0075C12.364 15.0075 13.0025 14.3081 13.0025 13.5075L13.0025 3.9975L14.4625 3.9975C14.7856 3.9975 15.0025 3.79771 15.0025 3.4975C15.0025 3.19729 14.7856 2.9975 14.4625 2.9975ZM12.0025 13.5075C12.0025 13.8077 11.8256 14.0075 11.5025 14.0075L4.5025 14.0075C4.17943 14.0075 4.0025 13.8077 4.0025 13.5075L4.0025 3.9975L12.0025 3.9975L12.0025 13.5075ZM5.5025 2.0075L10.5025 2.0075C10.8256 2.0075 11.0025 1.80771 11.0025 1.5075C11.0025 1.20729 10.8256 1.0075 10.5025 1.0075L5.5025 1.0075C5.17943 1.0075 5.0025 1.20729 5.0025 1.5075C5.0025 1.80771 5.17943 2.0075 5.5025 2.0075Z"   fill="#000000" >
</path>
</svg>
