<?xml version="1.0" encoding="UTF-8"?>
<svg width="16px" height="16px" viewBox="0 0 16 16" version="1.1" xmlns="http://www.w3.org/2000/svg" xmlns:xlink="http://www.w3.org/1999/xlink">
    <!-- Generator: Sketch 60 (88103) - https://sketch.com -->
    <title>16x16/列表循环_16</title>
    <desc>Created with Sketch.</desc>
    <g id="页面-1" stroke="none" stroke-width="1" fill="none" fill-rule="evenodd">
        <g id="icon" transform="translate(-788.000000, -20.000000)">
            <g id="16x16/" transform="translate(20.000000, 20.000000)">
                <g id="16x16/列表循环_16" transform="translate(768.000000, 0.000000)">
                    <g>
                        <g>
                         
                            <path d="M10.3279991,0.622503735 L10.3904344,0.687652476 L12.3904344,3.18765248 C12.4178837,3.22196413 12.4400801,3.25878282 12.4571313,3.29713696 L12.4791267,3.35658008 L12.4791267,3.35658008 L12.4963031,3.43876508 L12.4963031,3.43876508 L12.5,3.5 L12.5,3.5 L12.4932304,3.58202631 L12.4932304,3.58202631 L12.4675417,3.67759497 L12.4675417,3.67759497 L12.4372097,3.7428728 L12.4372097,3.7428728 L12.3691006,3.83738281 L12.3691006,3.83738281 L12.3123475,3.8904344 L12.3123475,3.8904344 L12.2543804,3.93052687 L12.2543804,3.93052687 L12.181424,3.96606873 L12.181424,3.96606873 L12.0995687,3.99008723 L12.0995687,3.99008723 L12.0425899,3.99823524 L12.0425899,3.99823524 L12,4 L5.5,4 C3.01514237,4 1,6.01514237 1,8.5 C1,10.9144826 2.90129586,12.884501 5.28816938,12.9951025 L5.5,13 L10.5,13 C12.9852185,13 15,10.9854968 15,8.5 C15,7.71989327 14.8011427,6.96896053 14.4279222,6.30361428 C14.2928255,6.06277516 14.3785466,5.75801893 14.6193857,5.62292219 C14.8602248,5.48782546 15.1649811,5.5735466 15.3000778,5.81438572 C15.7565768,6.62819385 16,7.54741814 16,8.5 C16,11.4637195 13.6561307,13.8795509 10.7212006,13.9956332 L10.5,14 L5.5,14 C2.46252769,14 0,11.5378125 0,8.5 C0,5.53693427 2.34418334,3.12048103 5.27882237,3.00436794 L5.5,3 L10.959,2.99998159 L9.6095656,1.31234752 C9.43706082,1.09671656 9.47202151,0.782070369 9.68765248,0.609565595 C9.87932445,0.456228018 10.1492307,0.466813769 10.3279991,0.622503735 Z" id="路径" fill="#000000" fill-rule="nonzero"></path>
                        </g>
                    </g>
                </g>
            </g>
        </g>
    </g>
</svg>