<svg xmlns="http://www.w3.org/2000/svg" xmlns:xlink="http://www.w3.org/1999/xlink" width="24" height="24" viewBox="0 0 24 24" fill="none"><g opacity="1"  transform="translate(0 0)  rotate(0)"><path id="Combined Shape" fill-rule="evenodd" style="fill:#000000" opacity="1" d="M6 12.5C6 12.78 6.22 13 6.5 13L12 13L12 18.5C12 18.78 12.22 19 12.5 19C12.78 19 13 18.78 13 18.5L13 13L18.5 13C18.78 13 19 12.78 19 12.5C19 12.22 18.78 12 18.5 12L13 12L13 6.5C13 6.22 12.78 6 12.5 6C12.22 6 12 6.22 12 6.5L12 12L6.5 12C6.22 12 6 12.22 6 12.5Z"></path></g></svg>