<svg xmlns="http://www.w3.org/2000/svg" xmlns:xlink="http://www.w3.org/1999/xlink" width="200" height="200" viewBox="0 0 200 200" fill="none">
<path d="M25.3661 154.787L175.634 154.787C185.652 154.787 194 145.239 194 133.304L194 27.8803C194 15.9455 185.652 6 175.634 6L25.3661 6C15.3482 6 7 15.5478 7 27.8803L7 132.906C7 144.841 15.3482 154.787 25.3661 154.787ZM17.0179 27.8803C17.0179 22.3108 20.6911 17.9348 25.3661 17.9348L175.634 17.9348C180.309 17.9348 183.982 22.3108 183.982 27.8803L183.982 133.304C183.982 138.874 180.309 143.25 175.634 143.25L25.3661 143.25C20.6911 143.25 17.0179 138.874 17.0179 133.304L17.0179 27.8803ZM37.5773 124.51C38.8396 125.504 40.102 126 41.3643 126C43.4681 126 45.1513 125.007 45.9928 123.02L66.1902 91.2349C67.4525 89.2482 69.1357 88.255 70.8189 88.255C72.9227 87.7583 74.6059 88.7514 75.8683 90.2414L94.3825 112.094C98.1696 116.564 103.219 119.047 108.689 118.55C114.159 118.054 119.208 115.074 122.575 110.107L164.653 49.0196C166.757 46.0397 166.336 41.0731 163.811 38.59C161.287 36.1068 157.079 36.6033 154.975 39.5832L112.897 100.671C111.634 102.658 109.951 103.651 108.268 103.651C106.585 104.148 104.902 103.154 103.64 101.664L85.1253 79.8118C81.3383 75.3419 75.8683 72.8588 70.3981 73.3555C64.9278 73.852 59.8785 77.3286 56.5124 82.2952L36.3149 114.081C34.2111 117.557 34.6317 122.027 37.5773 124.51ZM47.4054 189L153.595 189C156.266 189 158.604 186.215 158.604 183.033C158.604 179.85 156.266 177.065 153.595 177.065L47.4054 177.065C44.734 177.065 42.3965 179.85 42.3965 183.033C42.3965 186.215 44.734 189 47.4054 189Z" fill-rule="evenodd" fill="#333333">
</path>
</svg>