<svg xmlns="http://www.w3.org/2000/svg" xmlns:xlink="http://www.w3.org/1999/xlink" width="16" height="16" viewBox="0 0 16 16" fill="none">
<path d="M3.5 1L13.5 1C14.3284 1 15 1.67157 15 2.5L15 12.5C15 13.3284 14.3284 14 13.5 14L3.5 14C2.67157 14 2 13.3284 2 12.5L2 2.5C2 1.67157 2.67157 1 3.5 1ZM3.5 2C3.22386 2 3 2.22386 3 2.5L3 8.3636L4.6818 6.6818C4.76809 6.59551 4.88572 6.54797 5.00774 6.55007C5.12975 6.55216 5.24568 6.60372 5.32895 6.69293L8.87355 10.4901L11.6818 7.6818C11.8575 7.50607 12.1425 7.50607 12.3182 7.6818L14 9.3636L14 2.5C14 2.22386 13.7761 2 13.5 2L3.5 2ZM3 12.5L3 9.6364L4.98887 7.64753L8.5311 11.4421L9.94113 13L3.5 13C3.22386 13 3 12.7761 3 12.5ZM13.5 13L11.155 13L9.48336 11.153L12 8.6364L14 10.6364L14 12.5C14 12.7761 13.7761 13 13.5 13ZM7.64922 5.5C7.64922 5.03013 8.03013 4.64922 8.5 4.64922C8.96987 4.64922 9.35078 5.03013 9.35078 5.5C9.35078 5.96987 8.96987 6.35078 8.5 6.35078C8.03013 6.35078 7.64922 5.96987 7.64922 5.5ZM8.5 3.74922C7.53307 3.74922 6.74922 4.53307 6.74922 5.5C6.74922 6.46693 7.53307 7.25078 8.5 7.25078C9.46693 7.25078 10.2508 6.46693 10.2508 5.5C10.2508 4.53307 9.46693 3.74922 8.5 3.74922Z" fill-rule="evenodd"  fill="#000000" >
</path>
</svg>
