<svg xmlns="http://www.w3.org/2000/svg" xmlns:xlink="http://www.w3.org/1999/xlink" width="16" height="16" viewBox="0 0 16 16" fill="none">
<path d="M12.382 5.72265L7.38411 11.7201C7.19589 11.946 6.85435 11.9615 6.64645 11.7536L3.64665 8.75377L3.64645 8.75357C3.59956 8.70669 3.56343 8.65262 3.53806 8.59136C3.51269 8.53011 3.5 8.46633 3.5 8.40002C3.5 8.26195 3.55596 8.13695 3.64645 8.04647C3.73693 7.95598 3.86193 7.90002 4 7.90002C4.13807 7.90002 4.26307 7.95598 4.35355 8.04647L4.35375 8.04667L6.9664 10.6593L11.6134 5.08289C11.6142 5.0819 11.6151 5.08091 11.6159 5.07992C11.7076 4.96998 11.8456 4.90002 12 4.90002C12.1273 4.90002 12.2435 4.94759 12.3317 5.02591C12.3467 5.03919 12.3608 5.05332 12.3741 5.0683C12.4524 5.15656 12.5 5.27274 12.5 5.40002C12.5 5.5218 12.4565 5.6334 12.3841 5.72012L12.382 5.72265Z" fill-rule="evenodd"  fill="#000000" >
</path>
</svg>
