<svg xmlns="http://www.w3.org/2000/svg" xmlns:xlink="http://www.w3.org/1999/xlink" width="15.000001907348633" height="15" viewBox="0 0 15.000001907348633 15" fill="none">
<path d="M5.85355 2.14645C6.04882 2.34171 6.04882 2.65829 5.85355 2.85355L4.70711 4L10 4C12.4853 4 14.5 6.01472 14.5 8.5C14.5 10.9853 12.4853 13 10 13L6 13C5.72386 13 5.5 12.7761 5.5 12.5C5.5 12.2239 5.72386 12 6 12L10 12C11.933 12 13.5 10.433 13.5 8.5C13.5 6.567 11.933 5 10 5L4.70711 5L5.85355 6.14645C6.04882 6.34171 6.04882 6.65829 5.85355 6.85355C5.65829 7.04882 5.34171 7.04882 5.14645 6.85355L3.14645 4.85355C2.95118 4.65829 2.95118 4.34171 3.14645 4.14645L5.14645 2.14645C5.34171 1.95118 5.65829 1.95118 5.85355 2.14645Z" fill-rule="evenodd"  fill="#000000" >
</path>
</svg>
