<?xml version="1.0" encoding="UTF-8"?>
<svg width="16px" height="16px" viewBox="0 0 16 16" version="1.1" xmlns="http://www.w3.org/2000/svg" xmlns:xlink="http://www.w3.org/1999/xlink">
                <path d="M13,1 C14.6568542,1 16,2.34314575 16,4 L16,12 C16,13.6568542 14.6568542,15 13,15 L3,15 C1.34314575,15 0,13.6568542 0,12 L0,4 C0,2.34314575 1.34314575,1 3,1 L13,1 Z M13,2 L3,2 C1.9456382,2 1.08183488,2.81587779 1.00548574,3.85073766 L1,4 L1,12 C1,13.0543618 1.81587779,13.9181651 2.85073766,13.9945143 L3,14 L13,14 C14.0543618,14 14.9181651,13.1841222 14.9945143,12.1492623 L15,12 L15,4 C15,2.9456382 14.1841222,2.08183488 13.1492623,2.00548574 L13,2 Z M8,4 C9.65685425,4 11,5.34314575 11,7 C11,8.02624757 10.4847016,8.93214075 9.69873115,9.4730531 C10.4347895,9.92999918 11.0258444,10.7183198 11.4642383,11.8143047 C11.566795,12.0706964 11.4420871,12.3616816 11.1856953,12.4642383 C10.9293036,12.566795 10.6383184,12.4420871 10.5357617,12.1856953 C9.93898586,10.6937559 9.10647884,10 8,10 C6.89352116,10 6.06101414,10.6937559 5.46423835,12.1856953 C5.36168164,12.4420871 5.07069642,12.566795 4.81430466,12.4642383 C4.5579129,12.3616816 4.43320495,12.0706964 4.53576165,11.8143047 C4.97415561,10.7183198 5.56521052,9.92999918 6.30086335,9.47136147 C5.51529843,8.93214075 5,8.02624757 5,7 C5,5.34314575 6.34314575,4 8,4 Z M8,5 C6.8954305,5 6,5.8954305 6,7 C6,8.1045695 6.8954305,9 8,9 C9.1045695,9 10,8.1045695 10,7 C10,5.8954305 9.1045695,5 8,5 Z" fill="#000000" fill-rule="nonzero"></path>
</svg>