<svg xmlns="http://www.w3.org/2000/svg" xmlns:xlink="http://www.w3.org/1999/xlink" width="13" height="13" viewBox="0 0 13 13" fill="none">
<path d="M2 0L11 0C12.1 0 13 0.9 13 2L13 8C13 9.1 12.1 10 11 10L7 10L7 12L10.5 12C10.5328 12 10.5653 12.0032 10.5975 12.0096C10.6297 12.016 10.661 12.0255 10.6913 12.0381C10.7216 12.0506 10.7505 12.066 10.7778 12.0843C10.8051 12.1025 10.8303 12.1232 10.8536 12.1464C10.8768 12.1697 10.8975 12.1949 10.9157 12.2222C10.934 12.2495 10.9494 12.2784 10.9619 12.3087C10.9745 12.339 10.984 12.3703 10.9904 12.4025C10.9968 12.4347 11 12.4672 11 12.5C11 12.5328 10.9968 12.5653 10.9904 12.5975C10.984 12.6297 10.9745 12.661 10.9619 12.6913C10.9494 12.7216 10.934 12.7505 10.9157 12.7778C10.8975 12.8051 10.8768 12.8303 10.8536 12.8536C10.8303 12.8768 10.8051 12.8975 10.7778 12.9157C10.7505 12.934 10.7216 12.9494 10.6913 12.9619C10.661 12.9745 10.6297 12.984 10.5975 12.9904C10.5653 12.9968 10.5328 13 10.5 13L2.5 13C2.46717 13 2.43465 12.9968 2.40245 12.9904C2.37026 12.984 2.33899 12.9745 2.30866 12.9619C2.27833 12.9494 2.24951 12.934 2.22221 12.9157C2.19492 12.8975 2.16966 12.8768 2.14645 12.8536C2.12323 12.8303 2.1025 12.8051 2.08426 12.7778C2.06603 12.7505 2.05063 12.7216 2.03806 12.6913C2.02549 12.661 2.01601 12.6297 2.00961 12.5975C2.0032 12.5653 2 12.5328 2 12.5C2 12.4672 2.0032 12.4347 2.00961 12.4025C2.01601 12.3703 2.02549 12.339 2.03806 12.3087C2.05063 12.2784 2.06603 12.2495 2.08426 12.2222C2.1025 12.1949 2.12323 12.1697 2.14645 12.1464C2.16966 12.1232 2.19492 12.1025 2.22221 12.0843C2.24951 12.066 2.27833 12.0506 2.30866 12.0381C2.33899 12.0255 2.37026 12.016 2.40245 12.0096C2.43465 12.0032 2.46717 12 2.5 12L6 12L6 10L2 10C0.9 10 0 9.1 0 8L0 2C0 0.9 0.9 0 2 0ZM6.5 9L11 9C11.6 9 12 8.6 12 8L12 2C12 1.4 11.6 1 11 1L2 1C1.4 1 1 1.4 1 2L1 8C1 8.6 1.4 9 2 9L6.5 9Z" fill-rule="evenodd"  fill="#000000" >
</path>
</svg>
