<svg xmlns="http://www.w3.org/2000/svg" xmlns:xlink="http://www.w3.org/1999/xlink" width="16px" height="16px" viewBox="0 0 16 16" version="1.1">
    <path d="M3.98,1.22 L0.38,4.10 C-0.08,4.46 -0.13,5.14 0.27,5.57 L2.27,7.69 C2.46,7.89 2.72,8.00 3.00,8.00 L3.00,14.00 C3.00,14.55 3.45,15.00 4.00,15.00 L12.00,15.00 L12.12,14.99 C12.61,14.94 13.00,14.51 13.00,14.00 L13.00,8.00 C13.28,8.00 13.54,7.89 13.73,7.69 L15.73,5.57 C16.14,5.13 16.07,4.42 15.58,4.07 L11.58,1.19 C11.11,0.85 10.46,0.98 10.15,1.47 C9.53,2.47 8.77,2.92 7.80,2.92 C6.83,2.92 6.07,2.47 5.45,1.47 C5.13,0.96 4.44,0.85 3.98,1.22 Z M11.00,2.00 L15.00,4.88 L13.00,7.00 L12.00,7.00 L12.00,14.00 L4.00,14.00 L4.00,7.00 L3.00,7.00 L1.00,4.88 L4.60,2.00 C5.40,3.28 6.47,3.92 7.80,3.92 C9.13,3.92 10.20,3.28 11.00,2.00 Z" fill="#000" fill-rule="nonzero"/>
</svg>