<?xml version="1.0" encoding="UTF-8"?>
<svg width="16px" height="16px" viewBox="0 0 16 16" version="1.1" xmlns="http://www.w3.org/2000/svg" xmlns:xlink="http://www.w3.org/1999/xlink">
    <!-- Generator: Sketch 60 (88103) - https://sketch.com -->
                        <g>
                           <path d="M12.5,1 C12.7761424,1 13,1.22385763 13,1.5 L13,12.298 L14.2875969,11.0109116 C14.482859,10.8156494 14.7994415,10.8156494 14.9947037,11.0109116 C15.1899658,11.2061737 15.1899658,11.5227562 14.9947037,11.7180183 L12.8733833,13.8393387 C12.8468976,13.8658245 12.8181796,13.8887176 12.7878351,13.9080182 C12.7068701,13.966145 12.6073887,14 12.5,14 C12.2238576,14 12,13.7761424 12,13.5 L12,1.5 C12,1.22385763 12.2238576,1 12.5,1 Z M9.5,12 C9.77614237,12 10,12.2238576 10,12.5 C10,12.7761424 9.77614237,13 9.5,13 L1.5,13 C1.22385763,13 1,12.7761424 1,12.5 C1,12.2238576 1.22385763,12 1.5,12 L9.5,12 Z M9.5,7 C9.77614237,7 10,7.22385763 10,7.5 C10,7.77614237 9.77614237,8 9.5,8 L1.5,8 C1.22385763,8 1,7.77614237 1,7.5 C1,7.22385763 1.22385763,7 1.5,7 L9.5,7 Z M9.5,2 C9.77614237,2 10,2.22385763 10,2.5 C10,2.77614237 9.77614237,3 9.5,3 L1.5,3 C1.22385763,3 1,2.77614237 1,2.5 C1,2.22385763 1.22385763,2 1.5,2 L9.5,2 Z" id="形状" fill="#000000"></path>
                        </g>
                  
</svg>