<svg xmlns="http://www.w3.org/2000/svg" xmlns:xlink="http://www.w3.org/1999/xlink" width="17.999984741210938" height="17.999996185302734" viewBox="0 0 17.999984741210938 17.999996185302734" fill="none">
<path d="M11.3295 0.308574C6.52899 -0.976857 1.59495 1.87097 0.308863 6.67106C-0.977222 11.4711 1.87032 16.4052 6.67059 17.6912C11.4709 18.9773 16.4051 16.1288 17.6912 11.3297C18.9773 6.53067 16.1287 1.59461 11.3295 0.308574ZM8.99953 2.89411C9.01138 2.89411 9.02319 2.89439 9.035 2.89497C9.04683 2.89555 9.05864 2.89642 9.07041 2.89758C9.08218 2.89875 9.09393 2.90019 9.10562 2.90194C9.11733 2.90367 9.12898 2.90568 9.14059 2.90801C9.1522 2.9103 9.16374 2.91289 9.17521 2.91578C9.1867 2.91865 9.19809 2.9218 9.20942 2.92524C9.22075 2.92867 9.232 2.93239 9.24312 2.93637C9.25427 2.94034 9.2653 2.9446 9.27623 2.94914C9.28717 2.95368 9.298 2.95846 9.30868 2.96352C9.31939 2.96858 9.32995 2.9739 9.34038 2.97949C9.35082 2.98505 9.36113 2.99088 9.37127 2.99698C9.38143 3.00305 9.39142 3.00937 9.40124 3.01596C9.41108 3.02253 9.42076 3.02934 9.43026 3.03641C9.43978 3.04344 9.4491 3.05073 9.45824 3.05824C9.4674 3.06573 9.47636 3.07347 9.48512 3.08142C9.49389 3.08935 9.50247 3.09751 9.51083 3.10588C9.5192 3.11424 9.52736 3.12281 9.53529 3.13159C9.54324 3.14035 9.55098 3.14931 9.55847 3.15846C9.56598 3.1676 9.57327 3.17692 9.5803 3.18644C9.58737 3.19594 9.59418 3.2056 9.60075 3.21545C9.60734 3.22529 9.61366 3.23527 9.61973 3.24543C9.62584 3.25557 9.63166 3.26588 9.63722 3.27632C9.64281 3.28675 9.64813 3.29731 9.65319 3.30802C9.65825 3.3187 9.66303 3.32953 9.66757 3.34045C9.67211 3.35138 9.67637 3.36243 9.68035 3.37357C9.68433 3.3847 9.68804 3.39595 9.69148 3.40728C9.69491 3.41858 9.69806 3.42999 9.70094 3.44148C9.70383 3.45295 9.70642 3.4645 9.70871 3.47611C9.71104 3.48772 9.71305 3.49936 9.71478 3.51107C9.71652 3.52276 9.71797 3.53451 9.71913 3.54628C9.7203 3.55805 9.72116 3.56986 9.72175 3.58169C9.72233 3.5935 9.72261 3.60531 9.72261 3.61716C9.72261 3.62899 9.72233 3.64082 9.72175 3.65263C9.72116 3.66444 9.7203 3.67625 9.71913 3.68804C9.71797 3.69981 9.71652 3.71154 9.71478 3.72325C9.71305 3.73494 9.71104 3.74661 9.70871 3.75822C9.70642 3.76983 9.70383 3.78136 9.70094 3.79284C9.69806 3.80433 9.69491 3.81572 9.69148 3.82705C9.68804 3.83838 9.68433 3.8496 9.68035 3.86075C9.67637 3.87188 9.67211 3.88293 9.66757 3.89387C9.66303 3.9048 9.65825 3.9156 9.65319 3.92631C9.64813 3.93699 9.64281 3.94756 9.63722 3.958C9.63166 3.96845 9.62584 3.97873 9.61973 3.98889C9.61366 3.99904 9.60734 4.00902 9.60075 4.01886C9.59418 4.0287 9.58737 4.03836 9.5803 4.04788C9.57327 4.05738 9.56598 4.0667 9.55847 4.07586C9.55098 4.085 9.54324 4.09396 9.53529 4.10273C9.52736 4.11149 9.5192 4.12007 9.51083 4.12844C9.50247 4.1368 9.49389 4.14495 9.48512 4.15291C9.47636 4.16086 9.4674 4.16857 9.45824 4.17608C9.4491 4.1836 9.43978 4.19087 9.43026 4.19792C9.42076 4.20497 9.41108 4.21177 9.40124 4.21836C9.39142 4.22493 9.38143 4.23126 9.37127 4.23734C9.36113 4.24343 9.35082 4.24925 9.34038 4.25484C9.32995 4.26042 9.31939 4.26574 9.30868 4.2708C9.298 4.27585 9.28717 4.28065 9.27625 4.28518C9.26532 4.2897 9.25427 4.29396 9.24312 4.29796C9.232 4.30194 9.22075 4.30563 9.20942 4.30909C9.19809 4.3125 9.1867 4.31565 9.17521 4.31855C9.16374 4.32142 9.1522 4.32401 9.14059 4.32632C9.12898 4.32863 9.11733 4.33066 9.10562 4.33238C9.09393 4.33411 9.08218 4.33558 9.07041 4.33674C9.05864 4.33789 9.04683 4.33875 9.035 4.33935C9.02319 4.33992 9.01138 4.34022 8.99953 4.34022C8.98769 4.34022 8.97586 4.33992 8.96405 4.33935C8.95224 4.33875 8.94043 4.33789 8.92864 4.33674C8.91687 4.33558 8.90514 4.33411 8.89343 4.33238C8.88172 4.33066 8.87007 4.32863 8.85846 4.32632C8.84685 4.32401 8.83532 4.32142 8.82384 4.31855C8.81235 4.31565 8.80096 4.3125 8.78963 4.30909C8.7783 4.30563 8.76707 4.30194 8.75593 4.29796C8.7448 4.29396 8.73375 4.2897 8.7228 4.28518C8.71188 4.28065 8.70107 4.27585 8.69037 4.2708C8.67968 4.26574 8.66912 4.26042 8.65867 4.25484C8.64823 4.24925 8.63794 4.24343 8.62778 4.23734C8.61764 4.23126 8.60763 4.22493 8.59779 4.21836C8.58797 4.21177 8.57831 4.20497 8.56879 4.19792C8.55929 4.19087 8.54997 4.1836 8.54081 4.17608C8.53167 4.16857 8.52271 4.16086 8.51393 4.15291C8.50518 4.14495 8.4966 4.1368 8.48822 4.12844C8.47987 4.12007 8.47171 4.11149 8.46376 4.10273C8.45581 4.09396 8.44809 4.085 8.44058 4.07586C8.43307 4.0667 8.4258 4.05738 8.41873 4.04788C8.4117 4.03836 8.40489 4.0287 8.3983 4.01886C8.39173 4.00902 8.38541 3.99904 8.37932 3.98889C8.37323 3.97873 8.36741 3.96845 8.36182 3.958C8.35624 3.94756 8.35092 3.93699 8.34586 3.92631C8.3408 3.9156 8.33601 3.9048 8.33148 3.89387C8.32696 3.88293 8.3227 3.87188 8.3187 3.86075C8.31472 3.8496 8.31103 3.83838 8.30757 3.82705C8.30416 3.81572 8.30101 3.80433 8.29811 3.79284C8.29524 3.78136 8.29265 3.76983 8.29034 3.75822C8.28803 3.74661 8.286 3.73494 8.28427 3.72325C8.28255 3.71154 8.28108 3.69981 8.27992 3.68804C8.27877 3.67625 8.27791 3.66444 8.2773 3.65263C8.27674 3.64082 8.27644 3.62899 8.27644 3.61716C8.27644 3.60531 8.27674 3.5935 8.2773 3.58169C8.27791 3.56986 8.27877 3.55805 8.27992 3.54628C8.28108 3.53451 8.28255 3.52276 8.28427 3.51107C8.286 3.49936 8.28803 3.48772 8.29034 3.47611C8.29265 3.4645 8.29524 3.45295 8.29811 3.44148C8.30101 3.42999 8.30416 3.41858 8.30757 3.40728C8.31103 3.39595 8.31472 3.3847 8.3187 3.37357C8.3227 3.36243 8.32696 3.35138 8.33148 3.34045C8.33601 3.32953 8.3408 3.3187 8.34586 3.30802C8.35092 3.29731 8.35624 3.28675 8.36182 3.27632C8.36741 3.26588 8.37323 3.25557 8.37932 3.24543C8.38541 3.23527 8.39173 3.22529 8.3983 3.21545C8.40489 3.2056 8.4117 3.19594 8.41875 3.18644C8.4258 3.17692 8.43307 3.1676 8.44058 3.15846C8.44809 3.14931 8.45581 3.14035 8.46376 3.13159C8.47171 3.12281 8.47987 3.11424 8.48822 3.10588C8.4966 3.09751 8.50518 3.08935 8.51393 3.08142C8.52271 3.07347 8.53167 3.06573 8.54081 3.05824C8.54997 3.05073 8.55929 3.04344 8.56879 3.03641C8.57831 3.02934 8.58797 3.02253 8.59779 3.01596C8.60763 3.00937 8.61764 3.00305 8.62778 2.99698C8.63794 2.99088 8.64823 2.98505 8.65867 2.97949C8.66912 2.9739 8.67968 2.96858 8.69037 2.96352C8.70107 2.95846 8.71188 2.95368 8.7228 2.94914C8.73375 2.9446 8.7448 2.94034 8.75593 2.93637C8.76707 2.93239 8.7783 2.92867 8.78963 2.92524C8.80096 2.9218 8.81235 2.91865 8.82384 2.91578C8.83532 2.91289 8.84685 2.9103 8.85846 2.90801C8.87007 2.90568 8.88174 2.90367 8.89343 2.90194C8.90514 2.90019 8.91687 2.89875 8.92864 2.89758C8.94043 2.89642 8.95224 2.89555 8.96405 2.89497C8.97586 2.89439 8.98769 2.89411 8.99953 2.89411ZM10.3427 6.78133L8.53093 13.5425C8.54699 13.54 8.56302 13.5374 8.57901 13.5345C8.595 13.5316 8.61097 13.5285 8.62687 13.5252C8.64278 13.5219 8.65865 13.5184 8.67446 13.5147C8.69029 13.5109 8.70603 13.507 8.72174 13.5029C8.73745 13.4987 8.75311 13.4943 8.7687 13.4898C8.78429 13.4852 8.79981 13.4804 8.81528 13.4754C8.83074 13.4704 8.84615 13.4652 8.86146 13.4598C8.87678 13.4544 8.89203 13.4488 8.90719 13.443C8.92238 13.4372 8.93746 13.4311 8.95246 13.4249C8.96749 13.4187 8.98241 13.4123 8.99724 13.4056C9.0121 13.399 9.02684 13.3922 9.04148 13.3852C9.05615 13.3781 9.07069 13.3709 9.08515 13.3635C9.09961 13.3561 9.11397 13.3485 9.12823 13.3407C9.14249 13.3329 9.15663 13.3249 9.17067 13.3167C9.18471 13.3085 9.19863 13.3002 9.21245 13.2916C9.22627 13.2831 9.23997 13.2743 9.25355 13.2654C9.26713 13.2565 9.28058 13.2474 9.29392 13.2381C9.30726 13.2288 9.32047 13.2194 9.33355 13.2097C9.34665 13.2001 9.35958 13.1903 9.37239 13.1803C9.38521 13.1703 9.3979 13.1601 9.41044 13.1498C9.42299 13.1395 9.43538 13.129 9.44764 13.1183C9.45991 13.1077 9.47202 13.0968 9.48399 13.0858C9.49596 13.0749 9.50779 13.0637 9.51946 13.0524C9.53113 13.0411 9.54264 13.0296 9.55401 13.018C9.56538 13.0064 9.57657 12.9946 9.58761 12.9827C9.59866 12.9708 9.60955 12.9587 9.62027 12.9465C9.631 12.9343 9.64156 12.922 9.65193 12.9095C9.66233 12.897 9.67255 12.8843 9.6826 12.8716C9.69264 12.8588 9.70252 12.8459 9.71222 12.8329C9.72193 12.8198 9.73145 12.8067 9.74081 12.7934C9.75017 12.7801 9.75933 12.7667 9.7683 12.7532C9.7773 12.7396 9.7861 12.7259 9.79472 12.7122C9.7964 12.7093 9.79817 12.7065 9.79998 12.7037C9.80181 12.7009 9.80369 12.6981 9.80562 12.6954C9.80759 12.6927 9.8096 12.6901 9.81165 12.6875C9.81372 12.6848 9.81583 12.6823 9.818 12.6797C9.82018 12.6772 9.82241 12.6747 9.8247 12.6723C9.82699 12.6699 9.82932 12.6675 9.83171 12.6652C9.83412 12.6629 9.83655 12.6606 9.83905 12.6584C9.84154 12.6562 9.84409 12.654 9.84668 12.6519C9.84927 12.6498 9.8519 12.6478 9.85459 12.6458C9.85728 12.6438 9.85999 12.6419 9.86275 12.6401C9.86552 12.6382 9.86833 12.6364 9.87118 12.6347C9.87403 12.633 9.87691 12.6313 9.87984 12.6297C9.88277 12.6281 9.88572 12.6265 9.8887 12.6251C9.89171 12.6236 9.89472 12.6222 9.89778 12.6209C9.90083 12.6195 9.90392 12.6183 9.90701 12.617C9.91013 12.6158 9.91326 12.6147 9.91642 12.6137C9.91959 12.6126 9.92276 12.6116 9.92596 12.6107C9.92917 12.6098 9.9324 12.6089 9.93564 12.6082C9.93889 12.6074 9.94215 12.6067 9.94542 12.6061C9.94869 12.6054 9.95197 12.6049 9.95526 12.6044C9.95858 12.6039 9.96189 12.6035 9.96518 12.6031C9.96852 12.6028 9.97183 12.6026 9.97515 12.6024C9.97848 12.6022 9.98181 12.6021 9.98515 12.6021C9.98848 12.602 9.99182 12.6021 9.99515 12.6022C9.99849 12.6023 10.0018 12.6025 10.0051 12.6027C10.0085 12.603 10.0118 12.6033 10.0151 12.6038C10.0184 12.6042 10.0217 12.6046 10.025 12.6052C10.0283 12.6057 10.0315 12.6064 10.0348 12.6071C10.038 12.6078 10.0413 12.6086 10.0445 12.6094C10.0477 12.6103 10.0509 12.6112 10.0541 12.6121C10.0573 12.6131 10.0604 12.6142 10.0636 12.6153C10.0667 12.6165 10.0698 12.6177 10.0729 12.6189C10.076 12.6202 10.079 12.6215 10.0821 12.623C10.0851 12.6244 10.0881 12.6258 10.091 12.6274C10.094 12.6289 10.0969 12.6305 10.0998 12.6322C10.1027 12.6339 10.1055 12.6356 10.1083 12.6374C10.1111 12.6392 10.1139 12.641 10.1166 12.643C10.1194 12.6449 10.1221 12.6469 10.1247 12.6489C10.1273 12.6509 10.1299 12.653 10.1324 12.6552C10.135 12.6574 10.1375 12.6596 10.1399 12.6618C10.1424 12.6641 10.1448 12.6664 10.1471 12.6688C10.1494 12.6712 10.1517 12.6736 10.1539 12.6761C10.1562 12.6785 10.1584 12.6811 10.1605 12.6836C10.1626 12.6862 10.1647 12.6888 10.1667 12.6915C10.1687 12.6942 10.1706 12.6969 10.1725 12.6996C10.1744 12.7024 10.1762 12.7052 10.1779 12.708C10.1797 12.7108 10.1814 12.7137 10.183 12.7166C10.1847 12.7195 10.1862 12.7225 10.1877 12.7254C10.1892 12.7284 10.1906 12.7314 10.192 12.7345C10.1934 12.7375 10.1947 12.7406 10.1959 12.7437C10.1971 12.7468 10.1983 12.7499 10.1993 12.753C10.2004 12.7562 10.2015 12.7594 10.2024 12.7626C10.2033 12.7658 10.2042 12.769 10.205 12.7722C10.2058 12.7755 10.2065 12.7787 10.2072 12.782C10.2078 12.7852 10.2084 12.7885 10.2089 12.7918C10.2094 12.7951 10.2099 12.7984 10.2102 12.8017C10.2106 12.805 10.2109 12.8084 10.2111 12.8117C10.2113 12.815 10.2115 12.8184 10.2115 12.8217C10.2116 12.825 10.2116 12.8284 10.2115 12.8317C10.2114 12.835 10.2112 12.8383 10.211 12.8417C10.2108 12.845 10.2105 12.8483 10.2101 12.8516C10.2097 12.8549 10.2092 12.8582 10.2087 12.8615C10.2082 12.8648 10.2076 12.8681 10.2069 12.8714C10.2062 12.8746 10.2055 12.8779 10.2047 12.8811L10.0753 13.3631C10.0661 13.3974 10.0561 13.4315 10.0452 13.4653C10.0344 13.4991 10.0227 13.5326 10.0102 13.5658C9.9977 13.599 9.98439 13.6319 9.97027 13.6645C9.95614 13.6971 9.94124 13.7293 9.92553 13.7611C9.90983 13.7929 9.89336 13.8244 9.8761 13.8554C9.85887 13.8864 9.84087 13.917 9.82211 13.9472C9.80337 13.9773 9.78391 14.007 9.7637 14.0362C9.7435 14.0654 9.72259 14.094 9.70098 14.1222C9.67936 14.1504 9.65709 14.178 9.63411 14.2051C9.61115 14.2322 9.58753 14.2586 9.56325 14.2846C9.53899 14.3105 9.5141 14.3357 9.48859 14.3604C9.46308 14.3851 9.43699 14.4092 9.4103 14.4326C9.3836 14.456 9.35635 14.4787 9.32855 14.5008C9.30075 14.5229 9.27241 14.5442 9.24355 14.5649C9.2147 14.5856 9.18536 14.6055 9.15551 14.6248C9.12568 14.644 9.09539 14.6625 9.06464 14.6803C9.03389 14.698 9.00272 14.715 8.97114 14.7312C8.93957 14.7474 8.90761 14.7629 8.87527 14.7775C8.84294 14.7922 8.81028 14.806 8.77726 14.8191C8.74424 14.8321 8.71091 14.8444 8.67729 14.8558C8.64369 14.8672 8.60982 14.8778 8.57568 14.8875C8.54153 14.8973 8.50718 14.9062 8.4726 14.9142C8.43803 14.9223 8.40328 14.9295 8.36835 14.9359C8.33344 14.9422 8.29837 14.9477 8.26316 14.9523C8.22797 14.957 8.19268 14.9607 8.15729 14.9636C8.12192 14.9666 8.08649 14.9686 8.051 14.9697C8.01553 14.9709 7.98004 14.9712 7.94452 14.9706C7.90903 14.97 7.87358 14.9686 7.83815 14.9663C7.80272 14.9639 7.76737 14.9608 7.7321 14.9567C7.69683 14.9527 7.6617 14.9477 7.62667 14.9419C7.59164 14.9362 7.55677 14.9295 7.52206 14.922C7.48738 14.9145 7.45289 14.9062 7.41858 14.897C7.40715 14.8939 7.3958 14.8906 7.38454 14.887C7.37329 14.8834 7.36212 14.8795 7.35103 14.8753C7.33997 14.8711 7.329 14.8667 7.31813 14.862C7.30729 14.8573 7.29654 14.8523 7.28594 14.8471C7.27533 14.8418 7.26485 14.8363 7.2545 14.8306C7.24418 14.8249 7.23397 14.8188 7.22391 14.8126C7.21387 14.8063 7.20399 14.7998 7.19426 14.7931C7.18454 14.7864 7.17498 14.7794 7.16558 14.7722C7.1562 14.765 7.147 14.7576 7.13796 14.7499C7.12895 14.7422 7.12013 14.7344 7.11149 14.7263C7.10286 14.7182 7.09442 14.7099 7.08618 14.7014C7.07797 14.6929 7.06995 14.6842 7.06214 14.6753C7.05435 14.6664 7.04678 14.6573 7.0394 14.6481C7.03205 14.6388 7.02494 14.6293 7.01803 14.6197C7.01116 14.6101 7.00452 14.6003 6.99809 14.5904C6.99168 14.5804 6.98551 14.5703 6.97959 14.5601C6.97368 14.5499 6.96804 14.5394 6.96262 14.5289C6.95721 14.5184 6.95207 14.5078 6.94719 14.497C6.94231 14.4862 6.93769 14.4753 6.93333 14.4643C6.92899 14.4533 6.92494 14.4422 6.92112 14.431C6.91732 14.4198 6.91379 14.4085 6.91053 14.3971C6.9073 14.3857 6.90433 14.3743 6.90164 14.3628C6.89895 14.3512 6.89655 14.3397 6.89443 14.328C6.89232 14.3164 6.89049 14.3047 6.88894 14.293C6.8874 14.2812 6.88613 14.2695 6.88517 14.2577C6.8842 14.2459 6.88354 14.2341 6.88314 14.2222C6.88276 14.2104 6.88266 14.1986 6.88286 14.1868C6.88306 14.1749 6.88354 14.1631 6.8843 14.1513C6.88509 14.1395 6.88615 14.1277 6.8875 14.116C6.88886 14.1042 6.89049 14.0925 6.89242 14.0808C6.89435 14.0691 6.89657 14.0575 6.89907 14.046C6.90156 14.0344 6.90435 14.0229 6.9074 14.0115L8.71913 7.25031C8.70306 7.25276 8.68703 7.25541 8.67104 7.25831C8.65506 7.26118 8.63911 7.26427 8.6232 7.26759C8.60729 7.27088 8.59144 7.27439 8.57562 7.27813C8.55981 7.28187 8.54404 7.2858 8.52831 7.28998C8.51261 7.29412 8.49696 7.2985 8.48137 7.30308C8.46579 7.30765 8.45026 7.31243 8.4348 7.31744C8.41933 7.32242 8.40394 7.32762 8.38862 7.33304C8.37331 7.33844 8.35807 7.34407 8.34288 7.34989C8.32772 7.3557 8.31263 7.36172 8.29761 7.36795C8.28261 7.37418 8.26768 7.3806 8.25284 7.38723C8.23802 7.39384 8.22327 7.40067 8.20861 7.4077C8.19395 7.41471 8.17941 7.42192 8.16494 7.42935C8.15048 7.43676 8.13612 7.44437 8.12186 7.45217C8.10762 7.45996 8.09348 7.46795 8.07942 7.47613C8.0654 7.4843 8.05146 7.49268 8.03764 7.50123C8.02382 7.50979 8.01012 7.51853 7.99655 7.52744C7.98297 7.53636 7.96951 7.54548 7.95617 7.55476C7.94284 7.56404 7.92964 7.5735 7.91655 7.58314C7.90347 7.59278 7.89051 7.60258 7.8777 7.61258C7.86489 7.62256 7.85221 7.63273 7.83966 7.64305C7.82712 7.65338 7.81471 7.66386 7.80246 7.67454C7.79021 7.68519 7.77807 7.69602 7.7661 7.707C7.75413 7.71799 7.74232 7.72914 7.73063 7.74044C7.71898 7.75173 7.70745 7.7632 7.69609 7.77483C7.68472 7.78644 7.67351 7.79819 7.66246 7.81012C7.65141 7.82203 7.64055 7.8341 7.62982 7.84631C7.6191 7.85852 7.60855 7.87085 7.59815 7.88335C7.58776 7.89584 7.57754 7.90847 7.56748 7.92125C7.55743 7.934 7.54757 7.9469 7.53785 7.95995C7.52815 7.97297 7.51863 7.98612 7.50927 7.99942C7.49993 8.01271 7.49075 8.02613 7.48175 8.03967C7.47277 8.05318 7.46398 8.06684 7.45534 8.08062C7.45367 8.08351 7.45192 8.08638 7.45012 8.08922C7.44831 8.09203 7.44644 8.09482 7.44451 8.09757C7.44258 8.1003 7.4406 8.10301 7.43853 8.10567C7.43648 8.10832 7.43437 8.11091 7.4322 8.11348C7.43003 8.11603 7.42782 8.11854 7.42553 8.12101C7.42324 8.12346 7.42091 8.12585 7.41852 8.12822C7.41613 8.13057 7.41368 8.13288 7.41119 8.13513C7.4087 8.13736 7.40617 8.13955 7.40356 8.14168C7.40099 8.14381 7.39834 8.14588 7.39564 8.14788C7.39297 8.14989 7.39024 8.15186 7.38747 8.15375C7.3847 8.15564 7.38189 8.15744 7.37903 8.15921C7.37618 8.16098 7.37329 8.16267 7.37036 8.16431C7.36742 8.16594 7.36447 8.16751 7.36146 8.16901C7.35847 8.1705 7.35543 8.17193 7.35236 8.17329C7.34931 8.17466 7.34621 8.17594 7.34308 8.17717C7.33995 8.17839 7.33679 8.17956 7.33362 8.18064C7.33045 8.18171 7.32725 8.18271 7.32404 8.18366C7.32082 8.1846 7.31757 8.18546 7.31432 8.18627C7.31106 8.18705 7.30777 8.18777 7.30447 8.18842C7.3012 8.18906 7.29791 8.18962 7.29457 8.19012C7.29126 8.19063 7.28792 8.19105 7.28459 8.19141C7.28126 8.19175 7.27792 8.19201 7.27457 8.19221C7.27123 8.19241 7.26788 8.19253 7.2645 8.19259C7.26117 8.19263 7.25782 8.19259 7.25444 8.19249C7.25111 8.19239 7.24775 8.19221 7.2444 8.19197C7.24106 8.19171 7.23773 8.19137 7.2344 8.19097C7.23106 8.19057 7.22775 8.19008 7.22443 8.18954C7.22114 8.18898 7.21785 8.18836 7.21455 8.18765C7.21128 8.18695 7.20802 8.18619 7.20477 8.18534C7.20152 8.18448 7.1983 8.18356 7.19509 8.18257C7.19189 8.18157 7.18872 8.1805 7.18555 8.17938C7.18239 8.17823 7.17926 8.17703 7.17617 8.17576C7.17307 8.17448 7.17 8.17313 7.16695 8.17173C7.16392 8.1703 7.1609 8.16881 7.15793 8.16729C7.15496 8.16572 7.152 8.16411 7.14911 8.16243C7.14622 8.16074 7.14335 8.15901 7.14052 8.1572C7.1377 8.15538 7.13491 8.15351 7.13218 8.15158C7.12945 8.14963 7.12674 8.14764 7.12409 8.14559C7.12143 8.14353 7.11884 8.14142 7.11627 8.13925C7.11372 8.13708 7.11121 8.13485 7.10876 8.13256C7.10631 8.13027 7.10392 8.12792 7.10155 8.12553C7.09922 8.12314 7.09693 8.12069 7.09468 8.1182C7.09243 8.11571 7.09026 8.11316 7.08813 8.11057C7.086 8.10796 7.08393 8.10532 7.08193 8.10265C7.07992 8.09996 7.07797 8.09723 7.07608 8.09446C7.07421 8.09167 7.07238 8.08885 7.07062 8.086C7.06887 8.08315 7.06718 8.08024 7.06556 8.07731C7.06393 8.07437 7.06236 8.0714 7.06088 8.06841C7.05939 8.0654 7.05796 8.06236 7.0566 8.05931C7.05523 8.05624 7.05395 8.05314 7.05272 8.05001C7.05152 8.04688 7.05037 8.04374 7.04929 8.04057C7.0482 8.0374 7.0472 8.03418 7.04627 8.03097C7.04535 8.02774 7.04449 8.0245 7.04368 8.02125C7.0429 8.01798 7.04218 8.0147 7.04153 8.01141C7.04091 8.00811 7.04035 8.00482 7.03985 8.00151C7.03936 7.99817 7.03894 7.99486 7.0386 7.99152C7.03826 7.98819 7.038 7.98484 7.0378 7.98148C7.0376 7.97813 7.03748 7.97477 7.03744 7.97144C7.0374 7.96806 7.03744 7.96471 7.03754 7.96138C7.03766 7.95802 7.03784 7.95467 7.0381 7.95133C7.03836 7.94798 7.0387 7.94465 7.0391 7.94133C7.03951 7.938 7.03999 7.93466 7.04055 7.93137C7.04111 7.92806 7.04175 7.92476 7.04244 7.92149C7.04316 7.91819 7.04394 7.91494 7.04479 7.91171L7.17414 7.42967C7.18334 7.39537 7.19336 7.36132 7.20421 7.32754C7.21507 7.29374 7.22676 7.26021 7.23926 7.22699C7.25177 7.19377 7.26509 7.16087 7.27919 7.12832C7.29333 7.09574 7.30823 7.06352 7.32392 7.03169C7.33962 6.99983 7.35612 6.9684 7.37335 6.93739C7.3906 6.90634 7.4086 6.87575 7.42734 6.84562C7.44608 6.81547 7.46554 6.78581 7.48575 6.75663C7.50595 6.72742 7.52686 6.69874 7.54848 6.67058C7.57009 6.64242 7.59238 6.61481 7.61534 6.58773C7.63832 6.56066 7.66194 6.53417 7.6862 6.50826C7.71047 6.48235 7.73535 6.45704 7.76086 6.43236C7.78637 6.40767 7.81248 6.38363 7.83916 6.36021C7.86587 6.33679 7.89311 6.31406 7.9209 6.292C7.94872 6.26993 7.97706 6.24856 8.00591 6.22789C8.03477 6.20721 8.06411 6.18724 8.09394 6.16802C8.12379 6.14878 8.15408 6.13028 8.18481 6.11252C8.21556 6.09477 8.24673 6.07778 8.27831 6.06157C8.30988 6.04534 8.34184 6.02992 8.37418 6.01525C8.40652 6.00059 8.43919 5.98675 8.4722 5.97372C8.50522 5.96066 8.53854 5.94843 8.57216 5.93702C8.60579 5.92562 8.63965 5.91503 8.67378 5.90529C8.70792 5.89553 8.74229 5.88663 8.77685 5.87858C8.81144 5.8705 8.84619 5.86329 8.8811 5.85695C8.91603 5.85058 8.9511 5.84508 8.98629 5.84046C9.02148 5.83582 9.05677 5.83204 9.09216 5.82915C9.12755 5.82624 9.16298 5.82421 9.19845 5.82306C9.23394 5.8219 9.26944 5.8216 9.30493 5.82218C9.34044 5.82274 9.37589 5.82421 9.4113 5.82654C9.44673 5.82885 9.48208 5.83204 9.51735 5.8361C9.55262 5.84015 9.58775 5.84508 9.62278 5.85086C9.65781 5.85664 9.69268 5.86327 9.72739 5.87076C9.7621 5.87826 9.79658 5.88659 9.83087 5.89579C9.84232 5.89884 9.85367 5.90218 9.86494 5.90579C9.87622 5.90941 9.88739 5.91328 9.89846 5.91746C9.90955 5.92162 9.92053 5.92606 9.93138 5.93076C9.94225 5.93546 9.95299 5.94042 9.9636 5.94564C9.97422 5.95086 9.98471 5.95637 9.99505 5.96211C10.0054 5.96785 10.0156 5.97384 10.0257 5.98009C10.0357 5.98633 10.0456 5.99282 10.0553 5.99955C10.0651 6.00628 10.0746 6.01325 10.0841 6.02046C10.0935 6.02765 10.1027 6.03508 10.1117 6.04273C10.1207 6.05038 10.1296 6.05826 10.1382 6.06635C10.1468 6.07442 10.1553 6.08272 10.1635 6.09124C10.1718 6.09973 10.1798 6.10843 10.1876 6.11733C10.1954 6.1262 10.203 6.13528 10.2103 6.14456C10.2177 6.15384 10.2249 6.16328 10.2317 6.1729C10.2386 6.1825 10.2453 6.19228 10.2517 6.20224C10.2581 6.21219 10.2643 6.22229 10.2702 6.23253C10.2761 6.24278 10.2818 6.25318 10.2872 6.2637C10.2927 6.27423 10.2978 6.28487 10.3027 6.29566C10.3076 6.30642 10.3122 6.31733 10.3165 6.32834C10.3209 6.33934 10.325 6.35045 10.3288 6.36166C10.3326 6.37287 10.3361 6.38415 10.3394 6.39554C10.3427 6.40691 10.3456 6.41838 10.3483 6.42991C10.351 6.44143 10.3534 6.453 10.3555 6.46465C10.3577 6.4763 10.3595 6.48799 10.361 6.49972C10.3626 6.51145 10.3639 6.52322 10.3648 6.53503C10.3658 6.54682 10.3665 6.55863 10.3669 6.57046C10.3673 6.58229 10.3674 6.59412 10.3672 6.60597C10.367 6.6178 10.3665 6.62963 10.3657 6.64144C10.3649 6.65325 10.3639 6.66502 10.3625 6.67679C10.3612 6.68854 10.3595 6.70027 10.3576 6.71196C10.3557 6.72363 10.3535 6.73526 10.351 6.74683C10.3485 6.75839 10.3457 6.76988 10.3427 6.78133Z"   fill="#000000" >
</path>
</svg>
