<svg xmlns="http://www.w3.org/2000/svg" xmlns:xlink="http://www.w3.org/1999/xlink" width="16" height="16" viewBox="0 0 16 16" fill="none">
<path d="M13.5 15L6.5 15C5.11929 15 4 13.8807 4 12.5L4 3.5C4 2.11929 5.11929 1 6.5 1L10.5 1C10.8719 1 11.3858 1.24127 12.0416 1.72382C12.5823 2.12159 13.1571 2.62496 13.7661 3.23395C14.375 3.84293 14.8784 4.41774 15.2762 4.95838C15.7587 5.61425 16 6.12812 16 6.5L16 12.5C16 13.8807 14.8807 15 13.5 15ZM9 2L10.5 2C10.5528 2 10.6536 2.03818 10.8023 2.11454C10.9853 2.20846 11.2008 2.34671 11.449 2.5293C11.949 2.89716 12.4856 3.36774 13.059 3.94105C13.6322 4.51436 14.1028 5.05101 14.4707 5.551C14.6533 5.79917 14.7916 6.01473 14.8855 6.19769C14.9618 6.34643 15 6.4472 15 6.5L15 12.5C15 13.3284 14.3284 14 13.5 14L6.5 14C5.67157 14 5 13.3284 5 12.5L5 3.5C5 2.67157 5.67157 2 6.5 2L8 2L8 5.5C8 6.32843 8.67157 7 9.5 7L13.5 7C13.5328 7 13.5653 6.9968 13.5975 6.99039C13.6297 6.98398 13.661 6.9745 13.6913 6.96194C13.7217 6.94937 13.7505 6.93397 13.7778 6.91573C13.8051 6.89749 13.8303 6.87676 13.8535 6.85355C13.8768 6.83034 13.8975 6.80508 13.9157 6.77778C13.934 6.75049 13.9494 6.72167 13.9619 6.69134C13.9745 6.66101 13.984 6.62974 13.9904 6.59754C13.9968 6.56535 14 6.53283 14 6.5C14 6.46717 13.9968 6.43465 13.9904 6.40245C13.984 6.37025 13.9745 6.33899 13.9619 6.30866C13.9494 6.27833 13.934 6.24951 13.9157 6.22221C13.8975 6.19492 13.8768 6.16966 13.8535 6.14645C13.8303 6.12323 13.8051 6.1025 13.7778 6.08426C13.7505 6.06603 13.7217 6.05063 13.6913 6.03806C13.661 6.02549 13.6297 6.01601 13.5975 6.00961C13.5653 6.0032 13.5328 6 13.5 6L9.5 6C9.22386 6 9 5.77614 9 5.5L9 2Z" fill-rule="evenodd"  fill="#000000" >
</path>
</svg>
