<svg xmlns="http://www.w3.org/2000/svg" xmlns:xlink="http://www.w3.org/1999/xlink" width="16" height="16" viewBox="0 0 16 16" fill="none">
<path d="M6 1C7.30625 1 8.41751 1.83485 8.82933 3.00009L12 3C13.6569 3 15 4.34315 15 6L15 11C15 12.6569 13.6569 14 12 14L4 14C2.34315 14 1 12.6569 1 11L1 4C1 2.34315 2.34315 1 4 1L6 1ZM6 2L4 2C2.94564 2 2.08183 2.81588 2.00549 3.85074L2 4L2 11C2 12.0544 2.81588 12.9182 3.85074 12.9945L4 13L12 13C13.0544 13 13.9182 12.1841 13.9945 11.1493L14 11L14 6C14 4.94564 13.1841 4.08183 12.1493 4.00549L12 4L8.12213 4.00011L7.88648 3.33331C7.62394 2.59045 6.94669 2.0686 6.15893 2.00627L6 2Z"   fill="#000000" >
</path>
</svg>
