<svg xmlns="http://www.w3.org/2000/svg" xmlns:xlink="http://www.w3.org/1999/xlink" width="200" height="200" viewBox="0 0 200 200" fill="none">
<path d="M12 99.9999C12 90.6069 56.967 41.663 100 41.663C143.033 41.663 188 90.6069 188 99.9999C188 110.382 141.099 158.337 100 158.337C57.934 158.337 12 109.393 12 99.9999ZM148.307 75.621C131.287 62.6499 114.131 55.506 100 55.506C85.8689 55.506 68.7131 62.6489 51.6939 75.621C39.159 85.1739 30.675 94.8739 27.133 99.9489C30.7291 105.018 39.348 114.738 52.0699 124.373C69.2029 137.349 86.225 144.495 100 144.495C113.557 144.495 130.494 137.433 147.691 124.608C160.784 114.844 169.466 105.055 172.951 100.07C169.461 95.0288 160.941 85.2499 148.307 75.621ZM73.303 100C73.303 85.2551 85.2561 73.303 100 73.303C114.744 73.303 126.697 85.2551 126.697 100C126.697 114.745 114.744 126.697 100 126.697C85.2561 126.697 73.303 114.745 73.303 100ZM112.854 100C112.854 92.912 107.087 87.1462 100 87.1462C92.9132 87.1462 87.1462 92.912 87.1462 100C87.1462 107.088 92.9132 112.854 100 112.854C107.087 112.854 112.854 107.088 112.854 100Z" fill-rule="evenodd"  fill="#999999" >
</path>
</svg>
