<?xml version="1.0" encoding="UTF-8"?>
<svg width="16px" height="16px" viewBox="0 0 16 16" version="1.1" xmlns="http://www.w3.org/2000/svg" xmlns:xlink="http://www.w3.org/1999/xlink">

                            <path d="M8,0 C12.418278,0 16,3.581722 16,8 C16,12.418278 12.418278,16 8,16 C3.581722,16 0,12.418278 0,8 C0,3.581722 3.581722,0 8,0 Z M8,1 C4.13400675,1 1,4.13400675 1,8 C1,11.8659932 4.13400675,15 8,15 C11.8659932,15 15,11.8659932 15,8 C15,4.13400675 11.8659932,1 8,1 Z M7.5,3 C7.74545989,3 7.94960837,3.17687516 7.99194433,3.41012437 L8,3.5 L8,7.64285714 C8,7.83214763 8.07788797,7.95933081 8.13833683,7.99180579 L8.16666667,8 L11.5,8 C11.7761424,8 12,8.22385763 12,8.5 C12,8.74545989 11.8231248,8.94960837 11.5898756,8.99194433 L11.5,9 L8.16666667,9 C7.53317243,9 7.06208926,8.44522743 7.00567845,7.77772889 L7,7.64285714 L7,3.5 C7,3.22385763 7.22385763,3 7.5,3 Z" id="形状" fill="#000000" fill-rule="nonzero"></path>

</svg>