<svg xmlns="http://www.w3.org/2000/svg" xmlns:xlink="http://www.w3.org/1999/xlink" width="16" height="16" viewBox="0 0 16 16" fill="none">
<path d="M7.5 2C7.77614 2 8 2.22386 8 2.5C8 2.77614 7.77614 3 7.5 3L4 3C2.94564 3 2.08183 3.81588 2.00549 4.85074L2 5L2 13C2 14.0544 2.81588 14.9182 3.85074 14.9945L4 15L12 15C13.0544 15 13.9182 14.1841 13.9945 13.1493L14 13L14 9.5C14 9.22386 14.2239 9 14.5 9C14.7761 9 15 9.22386 15 9.5L15 13C15 14.6569 13.6569 16 12 16L4 16C2.34315 16 1 14.6569 1 13L1 5C1 3.34315 2.34315 2 4 2L7.5 2ZM13.6234 1.08859L13.6927 1.14645L15.814 3.26777C15.9876 3.44133 16.0068 3.71076 15.8718 3.90563L15.814 3.97487L7.45387 12.335C7.40014 12.3887 7.33511 12.4293 7.26392 12.4539L7.19086 12.4732L4.59082 12.9519C4.27507 13.01 3.99563 12.7617 4.00005 12.4546L4.00855 12.3696L4.48726 9.76958C4.50102 9.69485 4.53157 9.62457 4.57621 9.56388L4.62545 9.50657L12.9856 1.14645C13.1591 0.97288 13.4286 0.953595 13.6234 1.08859ZM13.3391 2.20711L5.44215 10.1041L5.12324 11.8372L6.85707 11.5176L14.7533 3.62132L13.3391 2.20711Z" fill-rule="evenodd"  fill="#000000" >
</path>
</svg>
