<svg xmlns="http://www.w3.org/2000/svg" xmlns:xlink="http://www.w3.org/1999/xlink" width="16" height="16" viewBox="0 0 16 16" fill="none">
<path d="M2 8.5C2 8.22386 2.20664 8 2.46154 8L13.5385 8C13.7933 8 14 8.22386 14 8.5C14 8.77614 13.7933 9 13.5385 9L2.46154 9C2.20664 9 2 8.77614 2 8.5Z" fill-rule="evenodd"  fill="#000000" >
</path>
<path d="M2 3.5C2 3.22386 2.20664 3 2.46154 3L13.5385 3C13.7933 3 14 3.22386 14 3.5C14 3.77614 13.7933 4 13.5385 4L2.46154 4C2.20664 4 2 3.77614 2 3.5Z" fill-rule="evenodd"  fill="#000000" >
</path>
<path d="M2 13.5C2 13.2239 2.20664 13 2.46154 13L13.5385 13C13.7933 13 14 13.2239 14 13.5C14 13.7761 13.7933 14 13.5385 14L2.46154 14C2.20664 14 2 13.7761 2 13.5Z" fill-rule="evenodd"  fill="#000000" >
</path>
</svg>
