<svg xmlns="http://www.w3.org/2000/svg" xmlns:xlink="http://www.w3.org/1999/xlink" width="16" height="16" viewBox="0 0 16 16" fill="none">
<path d="M10.5 5C10.5328 5 10.5653 5.0032 10.5975 5.00961C10.6297 5.01601 10.661 5.02549 10.6913 5.03806C10.7216 5.05063 10.7505 5.06603 10.7778 5.08427C10.8051 5.1025 10.8303 5.12323 10.8536 5.14645C10.8768 5.16966 10.8975 5.19492 10.9157 5.22221C10.934 5.24951 10.9494 5.27833 10.9619 5.30866C10.9745 5.33899 10.984 5.37025 10.9904 5.40245C10.9968 5.43465 11 5.46717 11 5.5L11 8C11.0001 8.04951 10.993 8.09797 10.9787 8.14536C10.9644 8.19276 10.9435 8.23706 10.916 8.27825C10.8885 8.31945 10.8557 8.35577 10.8174 8.3872C10.7792 8.41863 10.7372 8.44383 10.6915 8.46278C10.6458 8.48174 10.5983 8.49364 10.549 8.49849C10.4997 8.50334 10.4507 8.50092 10.4022 8.49124C10.3537 8.48155 10.3076 8.46502 10.2639 8.44165C10.2202 8.41827 10.1809 8.38905 10.146 8.354L9.25 7.457L1.354 15.354L0.646 14.646L8.543 6.75L7.646 5.854C7.61351 5.82163 7.58599 5.78548 7.56344 5.74555C7.54089 5.70561 7.52416 5.66337 7.51324 5.61883C7.50232 5.57428 7.49762 5.52909 7.49913 5.48326C7.50064 5.43742 7.50831 5.39264 7.52215 5.34891C7.53598 5.30518 7.55547 5.26414 7.5806 5.22578C7.60573 5.18741 7.63557 5.15315 7.67012 5.123C7.70468 5.09285 7.74267 5.06792 7.78408 5.04822C7.8255 5.02852 7.86881 5.01478 7.914 5.007L8 5L10.5 5ZM13.5 1C13.5491 1 13.5981 1.00241 13.647 1.00722C13.6959 1.01204 13.7445 1.01924 13.7926 1.02882C13.8408 1.03841 13.8884 1.05033 13.9354 1.06459C13.9824 1.07885 14.0286 1.09538 14.074 1.11418C14.1194 1.13298 14.1638 1.15396 14.2071 1.17712C14.2504 1.20028 14.2925 1.22551 14.3334 1.2528C14.3742 1.28009 14.4136 1.30932 14.4516 1.34048C14.4896 1.37165 14.526 1.4046 14.5607 1.43934C14.5954 1.47408 14.6284 1.51044 14.6595 1.54841C14.6907 1.58638 14.7199 1.62579 14.7472 1.66664C14.7745 1.70749 14.7997 1.74958 14.8229 1.7929C14.846 1.83623 14.867 1.88058 14.8858 1.92597C14.9046 1.97136 14.9211 2.01756 14.9354 2.06457C14.9497 2.11158 14.9616 2.15918 14.9712 2.20736C14.9808 2.25555 14.988 2.30408 14.9928 2.35297C14.9976 2.40186 15 2.45087 15 2.5L15 12.5C15 12.5491 14.9976 12.5981 14.9928 12.647C14.988 12.6959 14.9808 12.7445 14.9712 12.7926C14.9616 12.8408 14.9497 12.8884 14.9354 12.9354C14.9211 12.9824 14.9046 13.0286 14.8858 13.074C14.867 13.1194 14.846 13.1638 14.8229 13.2071C14.7997 13.2504 14.7745 13.2925 14.7472 13.3334C14.7199 13.3742 14.6907 13.4136 14.6595 13.4516C14.6284 13.4896 14.5954 13.526 14.5607 13.5607C14.526 13.5954 14.4896 13.6284 14.4516 13.6595C14.4136 13.6907 14.3742 13.7199 14.3334 13.7472C14.2925 13.7745 14.2504 13.7997 14.2071 13.8229C14.1638 13.846 14.1194 13.867 14.074 13.8858C14.0286 13.9046 13.9824 13.9211 13.9354 13.9354C13.8884 13.9497 13.8408 13.9616 13.7926 13.9712C13.7445 13.9808 13.6959 13.988 13.647 13.9928C13.5981 13.9976 13.5491 14 13.5 14L6.318 14L6.318 13L13.5 13C13.5328 13 13.5653 12.9968 13.5975 12.9904C13.6297 12.984 13.661 12.9745 13.6913 12.9619C13.7216 12.9494 13.7505 12.934 13.7778 12.9157C13.8051 12.8975 13.8303 12.8768 13.8536 12.8536C13.8768 12.8303 13.8975 12.8051 13.9157 12.7778C13.934 12.7505 13.9494 12.7216 13.9619 12.6913C13.9745 12.661 13.984 12.6297 13.9904 12.5975C13.9968 12.5653 14 12.5328 14 12.5L14 2.5C14 2.46717 13.9968 2.43465 13.9904 2.40245C13.984 2.37026 13.9745 2.33899 13.9619 2.30866C13.9494 2.27833 13.934 2.24951 13.9157 2.22221C13.8975 2.19492 13.8768 2.16966 13.8536 2.14645C13.8303 2.12323 13.8051 2.1025 13.7778 2.08427C13.7505 2.06603 13.7216 2.05063 13.6913 2.03806C13.661 2.02549 13.6297 2.01601 13.5975 2.00961C13.5653 2.0032 13.5328 2 13.5 2L3.5 2C3.46717 2 3.43465 2.0032 3.40245 2.00961C3.37026 2.01601 3.33899 2.02549 3.30866 2.03806C3.27833 2.05063 3.24951 2.06603 3.22221 2.08427C3.19492 2.1025 3.16966 2.12323 3.14645 2.14645C3.12323 2.16966 3.1025 2.19492 3.08427 2.22221C3.06603 2.24951 3.05063 2.27833 3.03806 2.30866C3.02549 2.33899 3.01601 2.37026 3.00961 2.40245C3.0032 2.43465 3 2.46717 3 2.5L3 9.682L2 9.682L2 2.5C2 2.45087 2.00241 2.40186 2.00722 2.35297C2.01204 2.30408 2.01924 2.25555 2.02882 2.20736C2.03841 2.15918 2.05033 2.11158 2.06459 2.06457C2.07885 2.01756 2.09538 1.97136 2.11418 1.92597C2.13298 1.88058 2.15396 1.83623 2.17712 1.7929C2.20028 1.74958 2.22551 1.70749 2.2528 1.66664C2.28009 1.62579 2.30932 1.58638 2.34048 1.54841C2.37165 1.51044 2.4046 1.47408 2.43934 1.43934C2.47408 1.4046 2.51044 1.37165 2.54841 1.34048C2.58638 1.30932 2.62579 1.28009 2.66664 1.2528C2.70749 1.22551 2.74958 1.20028 2.7929 1.17712C2.83623 1.15396 2.88058 1.13298 2.92597 1.11418C2.97136 1.09538 3.01756 1.07885 3.06457 1.06459C3.11158 1.05033 3.15918 1.03841 3.20736 1.02882C3.25555 1.01924 3.30408 1.01204 3.35297 1.00722C3.40186 1.00241 3.45087 1 3.5 1L13.5 1Z"   fill="#000000" >
</path>
</svg>
