<svg xmlns="http://www.w3.org/2000/svg" xmlns:xlink="http://www.w3.org/1999/xlink" width="15" height="15" viewBox="0 0 15 15" fill="none">
<path d="M8 0L10 0L10 1L8 1L8 14L10 14L10 15L5 15L5 14L7 14L7 1L5 1L5 0L8 0ZM6 2L2.5 2C2.41812 2 2.33148 2.01 2.25 2.01C2.16851 2.01 2.09031 2.03403 2.01 2.05C1.9297 2.06597 1.84835 2.08623 1.77 2.11C1.69165 2.13377 1.61565 2.15867 1.54 2.19C1.46435 2.22133 1.39221 2.2614 1.32 2.3C1.24779 2.33859 1.17808 2.37451 1.11 2.42C1.04193 2.46549 0.973293 2.51806 0.91 2.57C0.846707 2.62195 0.7879 2.67211 0.73 2.73C0.672107 2.7879 0.621947 2.84671 0.57 2.91C0.51806 2.97329 0.465487 3.04193 0.42 3.11C0.374507 3.17808 0.338593 3.24779 0.3 3.32C0.2614 3.39221 0.221333 3.46435 0.19 3.54C0.158667 3.61565 0.133767 3.69165 0.11 3.77C0.0862333 3.84835 0.0659733 3.9297 0.05 4.01C0.0340267 4.09031 0.01 4.16851 0.01 4.25C0.01 4.33148 0 4.41812 0 4.5L0 10.5C0 10.5819 0.01 10.6585 0.01 10.74C0.01 10.8215 0.0340267 10.9097 0.05 10.99C0.0659733 11.0703 0.0862333 11.1517 0.11 11.23C0.133767 11.3083 0.158667 11.3843 0.19 11.46C0.221333 11.5357 0.2614 11.6078 0.3 11.68C0.338593 11.7522 0.374507 11.8219 0.42 11.89C0.465487 11.9581 0.51806 12.0267 0.57 12.09C0.621947 12.1533 0.672107 12.2121 0.73 12.27C0.7879 12.3279 0.846707 12.3781 0.91 12.43C0.973293 12.4819 1.04193 12.5345 1.11 12.58C1.17808 12.6255 1.24779 12.6614 1.32 12.7C1.39221 12.7386 1.46435 12.7787 1.54 12.81C1.61565 12.8413 1.69165 12.8663 1.77 12.89C1.84835 12.9138 1.9297 12.934 2.01 12.95C2.09031 12.9659 2.16851 12.99 2.25 12.99C2.33148 12.99 2.41812 13 2.5 13L6 13L6 12L2.5 12C2.45087 12 2.39889 11.99 2.35 11.99C2.30111 11.99 2.25819 11.97 2.21 11.97C2.16182 11.97 2.10701 11.9543 2.06 11.94C2.01299 11.9257 1.97539 11.9088 1.93 11.89C1.88461 11.8712 1.83333 11.8431 1.79 11.82C1.74668 11.7968 1.71085 11.7773 1.67 11.75C1.62915 11.7227 1.58797 11.6912 1.55 11.66C1.51203 11.6289 1.47474 11.5947 1.44 11.56C1.40526 11.5253 1.37117 11.488 1.34 11.45C1.30884 11.412 1.27729 11.3708 1.25 11.33C1.22271 11.2891 1.20316 11.2533 1.18 11.21C1.15684 11.1667 1.1288 11.1154 1.11 11.07C1.0912 11.0246 1.07426 10.987 1.06 10.94C1.04574 10.893 1.03 10.8382 1.03 10.79C1.03 10.7419 1.01 10.6989 1.01 10.65C1.01 10.6011 1 10.5491 1 10.5L1 4.5C1 4.45087 1.01 4.39889 1.01 4.35C1.01 4.30111 1.03 4.25819 1.03 4.21C1.03 4.16182 1.04574 4.10701 1.06 4.06L1.11 3.93L1.18 3.79L1.25 3.67L1.34 3.55L1.44 3.44L1.55 3.34L1.67 3.25L1.79 3.18L1.93 3.11L2.06 3.06L2.21 3.03L2.35 3.01L2.5 3L6 3L6 2ZM9 12L12.5 12C12.5491 12 12.6011 11.99 12.65 11.99C12.6989 11.99 12.7419 11.97 12.79 11.97C12.8382 11.97 12.893 11.9543 12.94 11.94C12.987 11.9257 13.0246 11.9088 13.07 11.89C13.1154 11.8712 13.1667 11.8431 13.21 11.82C13.2533 11.7968 13.2891 11.7773 13.33 11.75C13.3708 11.7227 13.412 11.6912 13.45 11.66C13.488 11.6289 13.5253 11.5947 13.56 11.56C13.5947 11.5253 13.6289 11.488 13.66 11.45C13.6912 11.412 13.7227 11.3708 13.75 11.33C13.7773 11.2891 13.7968 11.2533 13.82 11.21C13.8431 11.1667 13.8712 11.1154 13.89 11.07C13.9088 11.0246 13.9257 10.987 13.94 10.94C13.9543 10.893 13.97 10.8382 13.97 10.79C13.97 10.7419 13.99 10.6989 13.99 10.65C13.99 10.6011 14 10.5491 14 10.5L14 4.5C14 4.45087 13.99 4.39889 13.99 4.35C13.99 4.30111 13.97 4.25819 13.97 4.21C13.97 4.16182 13.9543 4.10701 13.94 4.06C13.9257 4.01299 13.9088 3.97539 13.89 3.93C13.8712 3.88461 13.8431 3.83333 13.82 3.79C13.7968 3.74668 13.7773 3.71085 13.75 3.67C13.7227 3.62915 13.6912 3.58797 13.66 3.55C13.6289 3.51203 13.5947 3.47474 13.56 3.44C13.5253 3.40526 13.488 3.37117 13.45 3.34C13.412 3.30884 13.3708 3.27729 13.33 3.25C13.2891 3.22271 13.2533 3.20316 13.21 3.18C13.1667 3.15684 13.1154 3.1288 13.07 3.11C13.0246 3.0912 12.987 3.07426 12.94 3.06C12.893 3.04574 12.8382 3.03 12.79 3.03C12.7419 3.03 12.6989 3.01 12.65 3.01C12.6011 3.01 12.5491 3 12.5 3L9 3L9 2L12.5 2C12.5819 2 12.6685 2.01 12.75 2.01C12.8315 2.01 12.9097 2.03403 12.99 2.05C13.0703 2.06597 13.1517 2.08623 13.23 2.11C13.3083 2.13377 13.3843 2.15867 13.46 2.19C13.5357 2.22133 13.6078 2.2614 13.68 2.3C13.7522 2.33859 13.8219 2.37451 13.89 2.42C13.9581 2.46549 14.0267 2.51806 14.09 2.57C14.1533 2.62195 14.2121 2.67211 14.27 2.73C14.3279 2.7879 14.3781 2.84671 14.43 2.91C14.4819 2.97329 14.5345 3.04193 14.58 3.11C14.6255 3.17808 14.6614 3.24779 14.7 3.32C14.7386 3.39221 14.7787 3.46435 14.81 3.54C14.8413 3.61565 14.8662 3.69165 14.89 3.77C14.9137 3.84835 14.934 3.9297 14.95 4.01C14.9659 4.09031 14.99 4.16851 14.99 4.25C14.99 4.33148 15 4.41812 15 4.5L15 10.5C15 10.5819 14.99 10.6585 14.99 10.74C14.99 10.8215 14.9659 10.9097 14.95 10.99C14.934 11.0703 14.9137 11.1517 14.89 11.23C14.8662 11.3083 14.8413 11.3843 14.81 11.46C14.7787 11.5357 14.7386 11.6078 14.7 11.68C14.6614 11.7522 14.6255 11.8219 14.58 11.89C14.5345 11.9581 14.4819 12.0267 14.43 12.09C14.3781 12.1533 14.3279 12.2121 14.27 12.27C14.2121 12.3279 14.1533 12.3781 14.09 12.43C14.0267 12.4819 13.9581 12.5345 13.89 12.58C13.8219 12.6255 13.7522 12.6614 13.68 12.7C13.6078 12.7386 13.5357 12.7787 13.46 12.81C13.3843 12.8413 13.3083 12.8663 13.23 12.89C13.1517 12.9138 13.0703 12.934 12.99 12.95C12.9097 12.9659 12.8315 12.99 12.75 12.99C12.6685 12.99 12.5819 13 12.5 13L9 13L9 12Z" fill-rule="evenodd"  fill="#CCCCCC" >
</path>
</svg>
