<svg xmlns="http://www.w3.org/2000/svg" xmlns:xlink="http://www.w3.org/1999/xlink" width="200" height="200" viewBox="0 0 200 200" fill="none">
<path d="M181.616 73.1802C184.256 75.128 184.784 78.8001 182.796 81.3802C177.356 88.4401 169.984 94.812 161.272 100.152L173.552 117.312C175.308 119.76 174.888 123.112 172.672 125.064L172.156 125.468L172.052 125.544C171.972 125.599 171.891 125.652 171.808 125.703C171.726 125.753 171.642 125.802 171.557 125.849C171.472 125.896 171.386 125.941 171.299 125.983C171.212 126.026 171.124 126.066 171.035 126.105C170.946 126.143 170.856 126.179 170.765 126.213C170.675 126.247 170.583 126.279 170.491 126.308C170.398 126.338 170.305 126.365 170.212 126.391C170.118 126.416 170.024 126.438 169.929 126.459C169.834 126.479 169.739 126.498 169.643 126.513C169.548 126.529 169.452 126.543 169.356 126.554C169.259 126.565 169.163 126.574 169.066 126.581C168.969 126.587 168.873 126.591 168.776 126.593C168.679 126.595 168.582 126.595 168.485 126.592C168.388 126.589 168.291 126.584 168.194 126.576C168.098 126.569 168.001 126.559 167.905 126.547C167.809 126.534 167.713 126.52 167.618 126.503C167.523 126.486 167.427 126.467 167.333 126.446C167.238 126.424 167.144 126.4 167.051 126.374C166.958 126.348 166.865 126.32 166.773 126.29C166.681 126.259 166.59 126.226 166.499 126.191C166.409 126.157 166.319 126.119 166.231 126.08C166.142 126.041 166.054 126 165.968 125.956C165.881 125.913 165.795 125.867 165.711 125.819C165.627 125.772 165.543 125.722 165.461 125.67C165.379 125.618 165.299 125.565 165.219 125.509C165.14 125.454 165.062 125.396 164.985 125.337C164.909 125.277 164.834 125.216 164.76 125.153C164.686 125.09 164.614 125.025 164.544 124.959C164.473 124.892 164.404 124.824 164.337 124.754C164.27 124.684 164.204 124.613 164.141 124.54C164.077 124.467 164.015 124.392 163.955 124.316C163.895 124.241 163.836 124.163 163.78 124.084L150.7 105.812C148.994 106.603 147.271 107.352 145.53 108.061C143.788 108.77 142.031 109.436 140.258 110.062C138.485 110.687 136.698 111.269 134.898 111.809C133.097 112.349 131.284 112.846 129.46 113.3L134.728 132.516C134.752 132.604 134.774 132.692 134.794 132.78C134.814 132.869 134.832 132.958 134.847 133.048C134.863 133.137 134.877 133.227 134.888 133.317C134.9 133.407 134.91 133.497 134.917 133.588C134.925 133.678 134.93 133.769 134.933 133.859C134.937 133.95 134.938 134.041 134.937 134.132C134.936 134.223 134.933 134.313 134.928 134.404C134.923 134.495 134.916 134.585 134.907 134.676C134.898 134.766 134.886 134.856 134.873 134.946C134.86 135.036 134.844 135.125 134.827 135.215C134.809 135.304 134.79 135.392 134.768 135.481C134.747 135.569 134.723 135.656 134.697 135.743C134.672 135.831 134.644 135.917 134.615 136.003C134.585 136.089 134.553 136.174 134.52 136.258C134.486 136.343 134.451 136.426 134.414 136.509C134.376 136.592 134.337 136.674 134.296 136.755C134.255 136.836 134.212 136.916 134.167 136.995C134.122 137.074 134.076 137.152 134.027 137.229C133.979 137.305 133.929 137.381 133.877 137.456C133.825 137.53 133.771 137.604 133.716 137.676C133.661 137.748 133.604 137.818 133.545 137.888C133.487 137.957 133.427 138.025 133.365 138.092C133.303 138.159 133.24 138.224 133.176 138.288C133.111 138.352 133.045 138.414 132.977 138.475C132.91 138.535 132.841 138.594 132.771 138.652C132.701 138.71 132.629 138.766 132.556 138.82C132.483 138.874 132.409 138.926 132.334 138.977C132.259 139.028 132.182 139.077 132.105 139.125C132.027 139.172 131.949 139.218 131.869 139.261C131.79 139.305 131.709 139.347 131.627 139.387C131.546 139.427 131.463 139.465 131.38 139.501C131.297 139.537 131.213 139.572 131.128 139.604L130.476 139.812C130.382 139.837 130.287 139.859 130.191 139.879C130.096 139.9 130 139.917 129.904 139.933C129.808 139.948 129.711 139.961 129.614 139.972C129.517 139.983 129.42 139.991 129.323 139.997C129.225 140.003 129.128 140.006 129.03 140.008C128.933 140.009 128.835 140.008 128.738 140.004C128.641 140.001 128.543 139.995 128.446 139.986C128.349 139.978 128.252 139.967 128.155 139.955C128.059 139.941 127.962 139.926 127.866 139.908C127.771 139.891 127.675 139.871 127.58 139.848C127.485 139.826 127.391 139.801 127.297 139.775C127.203 139.748 127.11 139.718 127.018 139.687C126.926 139.655 126.835 139.622 126.744 139.586C126.653 139.55 126.564 139.512 126.475 139.471C126.386 139.431 126.298 139.389 126.211 139.344C126.125 139.299 126.039 139.253 125.955 139.204C125.87 139.155 125.787 139.104 125.705 139.052C125.623 138.999 125.543 138.944 125.463 138.887C125.384 138.831 125.306 138.772 125.229 138.711C125.153 138.651 125.078 138.588 125.005 138.524C124.931 138.46 124.86 138.394 124.789 138.326C124.719 138.258 124.651 138.189 124.584 138.118C124.517 138.047 124.452 137.975 124.389 137.9C124.326 137.826 124.264 137.75 124.205 137.673C124.145 137.596 124.087 137.517 124.032 137.437C123.976 137.357 123.922 137.276 123.87 137.193C123.819 137.111 123.769 137.027 123.721 136.942C123.674 136.857 123.628 136.771 123.585 136.683C123.541 136.596 123.5 136.508 123.46 136.418C123.421 136.329 123.384 136.239 123.35 136.148C123.315 136.057 123.282 135.965 123.252 135.872C123.222 135.779 123.194 135.686 123.168 135.592L117.708 115.64C114.764 116.08 111.807 116.411 108.838 116.633C105.87 116.854 102.897 116.966 99.9199 116.968C93.9199 116.968 87.9679 116.508 82.14 115.64L76.672 135.592C76.6478 135.68 76.6216 135.768 76.5933 135.855C76.5652 135.942 76.5349 136.028 76.5029 136.114C76.4708 136.2 76.4367 136.284 76.4005 136.368C76.3646 136.453 76.3265 136.536 76.2867 136.618C76.2468 136.7 76.2052 136.782 76.1617 136.862C76.1181 136.943 76.0728 137.022 76.0255 137.1C75.9783 137.179 75.9292 137.256 75.8784 137.332C75.8279 137.408 75.7755 137.483 75.7212 137.557C75.6671 137.631 75.6113 137.703 75.5538 137.774C75.4964 137.846 75.4372 137.915 75.3765 137.984C75.3159 138.052 75.2538 138.119 75.19 138.185C75.1263 138.251 75.0613 138.315 74.9945 138.377C74.9279 138.44 74.8597 138.501 74.7902 138.561C74.7208 138.62 74.6501 138.678 74.5779 138.734C74.5058 138.791 74.4324 138.845 74.3577 138.898C74.2831 138.951 74.2074 139.002 74.1304 139.052C74.0535 139.101 73.9755 139.149 73.8964 139.195C73.8173 139.241 73.7372 139.285 73.656 139.327C73.5749 139.369 73.4929 139.41 73.4097 139.448C73.3269 139.487 73.2431 139.523 73.1583 139.558C73.0738 139.592 72.9884 139.625 72.9021 139.656C72.8159 139.687 72.729 139.716 72.6415 139.742C72.5542 139.769 72.4661 139.794 72.3775 139.816C72.289 139.839 72.1999 139.86 72.1103 139.879C72.0208 139.897 71.9308 139.914 71.8404 139.929C71.7501 139.943 71.6597 139.956 71.5687 139.966C71.4779 139.976 71.3869 139.985 71.2954 139.991C71.2042 139.997 71.1128 140.001 71.0214 140.003C70.93 140.006 70.8384 140.006 70.747 140.003C70.6556 140.001 70.5644 139.997 70.473 139.991C70.3818 139.984 70.2908 139.976 70.1997 139.966C70.1089 139.955 70.0183 139.943 69.9279 139.928L69.3199 139.8C69.232 139.777 69.1447 139.752 69.0579 139.725C68.9712 139.698 68.8853 139.669 68.7997 139.638C68.7144 139.607 68.6298 139.574 68.5458 139.539C68.4621 139.504 68.379 139.467 68.2968 139.428C68.2148 139.39 68.1335 139.349 68.0531 139.306C67.9728 139.264 67.8935 139.22 67.8152 139.173C67.737 139.127 67.6599 139.079 67.5837 139.03C67.5078 138.98 67.4329 138.928 67.3591 138.875C67.2855 138.822 67.213 138.767 67.1419 138.711C67.0708 138.654 67.0009 138.596 66.9324 138.536C66.864 138.477 66.7968 138.416 66.7312 138.353C66.6656 138.29 66.6015 138.226 66.5386 138.16C66.4761 138.094 66.415 138.027 66.3552 137.958C66.2956 137.89 66.2376 137.82 66.1812 137.749C66.1249 137.677 66.0703 137.605 66.0171 137.531C65.964 137.457 65.9128 137.382 65.8632 137.306C65.8136 137.23 65.7658 137.153 65.7197 137.074C65.6738 136.996 65.6296 136.917 65.5871 136.836C65.5449 136.756 65.5042 136.675 65.4656 136.592C65.4271 136.51 65.3904 136.427 65.3556 136.343C65.3208 136.259 65.2878 136.174 65.257 136.089C65.2261 136.004 65.1972 135.917 65.1702 135.831C65.1433 135.744 65.1185 135.657 65.0954 135.569C65.0726 135.481 65.0517 135.392 65.0329 135.303C65.0142 135.215 64.9974 135.125 64.9826 135.036C64.9679 134.946 64.9552 134.856 64.9447 134.766C64.9341 134.675 64.9257 134.585 64.9193 134.494C64.913 134.404 64.9087 134.313 64.9064 134.222C64.9042 134.131 64.904 134.041 64.906 133.95C64.9079 133.859 64.912 133.768 64.9181 133.677C64.9243 133.587 64.9326 133.496 64.9427 133.406C64.9533 133.316 64.9656 133.226 64.98 133.136L65.116 132.516L70.38 113.3C68.5556 112.846 66.7431 112.349 64.9423 111.809C63.1415 111.269 61.3548 110.687 59.5818 110.062C57.8087 109.437 56.0517 108.77 54.3103 108.061C52.5691 107.352 50.8456 106.603 49.14 105.812L36.0599 124.084C36.0072 124.158 35.9529 124.23 35.8968 124.301C35.841 124.373 35.7833 124.442 35.7242 124.511C35.6652 124.58 35.6044 124.647 35.5421 124.713C35.48 124.779 35.4163 124.843 35.3512 124.906C35.2861 124.969 35.2196 125.03 35.1518 125.09C35.0838 125.15 35.0146 125.208 34.9441 125.265C34.8736 125.322 34.8018 125.377 34.7287 125.431C34.6557 125.484 34.5815 125.536 34.5061 125.587C34.4307 125.637 34.3542 125.685 34.2766 125.732C34.199 125.779 34.1204 125.824 34.0408 125.867C33.9611 125.91 33.8805 125.951 33.799 125.991C33.7177 126.031 33.6353 126.068 33.5521 126.104C33.4689 126.14 33.385 126.174 33.3002 126.206C33.2154 126.238 33.13 126.268 33.0439 126.296C32.9579 126.324 32.8712 126.35 32.7838 126.374C32.6966 126.399 32.6088 126.421 32.5205 126.441C32.4322 126.461 32.3436 126.479 32.2545 126.496C32.1653 126.512 32.0759 126.526 31.9861 126.538C31.8964 126.55 31.8064 126.56 31.7162 126.568C31.626 126.576 31.5356 126.583 31.4451 126.587C31.3546 126.591 31.2641 126.593 31.1734 126.592C31.0829 126.592 30.9925 126.59 30.9019 126.586C30.8115 126.582 30.7211 126.575 30.6309 126.567C30.5408 126.559 30.4509 126.549 30.3611 126.536C30.2714 126.524 30.182 126.509 30.093 126.493C30.0038 126.477 29.9151 126.458 29.827 126.438C29.7387 126.417 29.6509 126.395 29.5637 126.371C29.4764 126.346 29.3898 126.32 29.3039 126.291C29.2178 126.263 29.1325 126.233 29.0479 126.201C28.9632 126.168 28.8793 126.134 28.7961 126.098C28.713 126.062 28.6308 126.024 28.5494 125.985C28.468 125.945 28.3876 125.903 28.308 125.86L27.7359 125.504C27.6624 125.454 27.59 125.402 27.5189 125.348C27.4477 125.294 27.3778 125.239 27.3092 125.183C27.2406 125.126 27.1733 125.067 27.1074 125.007C27.0415 124.947 26.977 124.886 26.9139 124.823C26.8507 124.76 26.7891 124.696 26.7289 124.63C26.6688 124.564 26.6101 124.497 26.5529 124.429C26.4959 124.36 26.4404 124.291 26.3865 124.22C26.3326 124.149 26.2804 124.076 26.2299 124.003C26.1792 123.93 26.1303 123.855 26.0832 123.78C26.0361 123.704 25.9907 123.627 25.9471 123.55C25.9035 123.472 25.8616 123.393 25.8215 123.314C25.7815 123.234 25.7434 123.154 25.707 123.072C25.6707 122.991 25.6363 122.909 25.6037 122.826C25.571 122.743 25.5404 122.659 25.5117 122.575C25.4829 122.491 25.4562 122.406 25.4314 122.32C25.4066 122.234 25.3837 122.148 25.3629 122.062C25.3419 121.975 25.3231 121.888 25.3062 121.8C25.2893 121.713 25.2745 121.625 25.2617 121.537C25.2488 121.449 25.238 121.36 25.2293 121.272C25.2204 121.183 25.2137 121.094 25.209 121.005C25.2043 120.916 25.2016 120.827 25.201 120.738C25.2003 120.649 25.2018 120.56 25.2053 120.471C25.2088 120.382 25.2143 120.293 25.2219 120.204C25.2294 120.115 25.239 120.027 25.2506 119.938C25.2622 119.85 25.2758 119.762 25.2914 119.674C25.3072 119.586 25.3249 119.499 25.3445 119.412C25.3642 119.325 25.3858 119.239 25.4094 119.153C25.4331 119.067 25.4587 118.982 25.4861 118.897C25.5137 118.812 25.5432 118.728 25.5746 118.645C25.606 118.561 25.6393 118.479 25.6746 118.397C25.7098 118.315 25.7468 118.234 25.7857 118.154C25.8247 118.074 25.8654 117.994 25.908 117.916L26.2881 117.308L38.572 100.148C29.9561 94.8681 22.6439 88.5761 17.224 81.6081C17.1647 81.5322 17.1074 81.4548 17.0521 81.3761C16.9967 81.2973 16.9433 81.2171 16.8919 81.1356C16.8406 81.0543 16.7913 80.9716 16.744 80.8876C16.6968 80.8036 16.6517 80.7186 16.6087 80.6325C16.5658 80.5463 16.525 80.4591 16.4864 80.3708C16.4478 80.2825 16.4114 80.1934 16.3773 80.1034C16.3431 80.0133 16.3112 79.9224 16.2816 79.8308C16.252 79.7392 16.2247 79.6469 16.1998 79.5538C16.1748 79.4608 16.1522 79.3673 16.1319 79.2731C16.1116 79.179 16.0937 79.0844 16.0781 78.9893C16.0625 78.8943 16.0494 78.7989 16.0386 78.7032C16.0278 78.6075 16.0194 78.5116 16.0134 78.4155C16.0075 78.3194 16.0039 78.2232 16.0027 78.1268C16.0015 78.0306 16.0028 77.9344 16.0064 77.8382C16.0101 77.7419 16.0161 77.6459 16.0246 77.5499C16.0331 77.4539 16.0439 77.3582 16.0572 77.2628C16.0704 77.1675 16.086 77.0725 16.104 76.9778C16.122 76.8833 16.1424 76.7892 16.1651 76.6956C16.1878 76.602 16.2129 76.509 16.2402 76.4167C16.2676 76.3244 16.2973 76.2328 16.3292 76.1419C16.3612 76.0511 16.3954 75.9611 16.4318 75.872C16.4683 75.7828 16.5069 75.6946 16.5478 75.6075C16.5887 75.5203 16.6317 75.4341 16.6769 75.3491C16.7221 75.2641 16.7693 75.1802 16.8187 75.0975C16.8681 75.0149 16.9195 74.9334 16.973 74.8532C17.0264 74.7731 17.0818 74.6944 17.1392 74.6171C17.1966 74.5397 17.2559 74.4639 17.3171 74.3895C17.3783 74.3152 17.4413 74.2424 17.5061 74.1712C17.571 74.1 17.6375 74.0304 17.7058 73.9626C17.7742 73.8947 17.8441 73.8286 17.9158 73.7641C17.9874 73.6998 18.0606 73.6373 18.1353 73.5765C18.2101 73.5158 18.2863 73.457 18.364 73.4001C18.4424 73.342 18.522 73.2858 18.6031 73.2315C18.6842 73.1772 18.7665 73.1249 18.85 73.0745C18.9336 73.0242 19.0184 72.976 19.1043 72.9298C19.1902 72.8834 19.2771 72.8392 19.3651 72.7972C19.4532 72.7551 19.5421 72.7152 19.632 72.6774C19.722 72.6397 19.8128 72.6041 19.9045 72.5706C19.9962 72.5373 20.0886 72.5061 20.1816 72.477C20.2749 72.4481 20.3687 72.4214 20.4631 72.397C20.5575 72.3725 20.6525 72.3503 20.748 72.3306C20.8436 72.3106 20.9396 72.2931 21.0359 72.2778C21.1323 72.2626 21.2289 72.2496 21.3258 72.239C21.4228 72.2284 21.52 72.2201 21.6174 72.2141C21.7148 72.2083 21.8122 72.2047 21.9098 72.2034C22.0073 72.2022 22.1048 72.2034 22.2023 72.2069C22.2999 72.2103 22.3972 72.2161 22.4943 72.2243C22.5916 72.2324 22.6886 72.2429 22.7853 72.2558C22.8821 72.2685 22.9785 72.2836 23.0744 72.3011C23.1704 72.3185 23.2659 72.3383 23.3609 72.3604C23.456 72.3824 23.5504 72.4067 23.6441 72.4333C23.738 72.4598 23.8312 72.4887 23.9236 72.5198C24.0162 72.5509 24.1079 72.5842 24.1988 72.6196C24.2896 72.6552 24.3795 72.6929 24.4686 72.7327C24.5576 72.7725 24.6457 72.8145 24.7328 72.8585C24.8198 72.9026 24.9057 72.9488 24.9906 72.997C25.0754 73.0451 25.159 73.0953 25.2414 73.1476C25.3238 73.1998 25.405 73.2539 25.4848 73.31C25.5644 73.3662 25.6428 73.4242 25.7199 73.4841C25.7969 73.544 25.8724 73.6057 25.9465 73.6692C26.0204 73.7328 26.0929 73.7981 26.1639 73.8651C26.2347 73.9322 26.3039 74.0009 26.3715 74.0712C26.4391 74.1415 26.505 74.2134 26.5691 74.287C26.6332 74.3606 26.6955 74.4356 26.7561 74.5122C40.4679 92.136 69.5359 105.252 99.9199 105.252C130.424 105.252 159.596 92.0321 173.228 74.3321C173.288 74.2553 173.35 74.18 173.414 74.1061C173.478 74.0322 173.543 73.9599 173.61 73.8892C173.678 73.8185 173.747 73.7494 173.817 73.6821C173.888 73.6147 173.96 73.549 174.034 73.4852C174.107 73.4213 174.183 73.3592 174.259 73.2989C174.336 73.2386 174.414 73.1802 174.494 73.1237C174.573 73.0672 174.654 73.0126 174.736 72.9598C174.818 72.9072 174.902 72.8567 174.986 72.8081C175.071 72.7594 175.157 72.7128 175.243 72.6684C175.33 72.6239 175.418 72.5815 175.507 72.5413C175.596 72.5011 175.686 72.463 175.776 72.427C175.867 72.3911 175.959 72.3573 176.051 72.3257C176.143 72.2942 176.236 72.2649 176.33 72.238C176.424 72.2109 176.518 72.1861 176.613 72.1636C176.708 72.141 176.804 72.1208 176.9 72.1028C176.996 72.085 177.092 72.0694 177.188 72.0561C177.285 72.0429 177.382 72.0319 177.479 72.0233C177.577 72.0147 177.674 72.0085 177.771 72.0046C177.869 72.0005 177.966 71.9989 178.064 71.9997C178.161 72.0005 178.259 72.0036 178.356 72.0091C178.454 72.0145 178.551 72.0224 178.648 72.0325C178.745 72.0427 178.842 72.0552 178.938 72.07C179.035 72.0849 179.131 72.102 179.227 72.1214C179.322 72.1408 179.417 72.1625 179.512 72.1866C179.606 72.2106 179.7 72.2368 179.794 72.2653C179.887 72.2938 179.979 72.3246 180.071 72.3577C180.163 72.3906 180.254 72.4258 180.344 72.4632C180.435 72.5005 180.524 72.5401 180.612 72.5817C180.7 72.6234 180.787 72.6671 180.873 72.713C180.96 72.7588 181.044 72.8067 181.128 72.8567C181.212 72.9067 181.295 72.9587 181.376 73.0126C181.457 73.0665 181.537 73.1223 181.616 73.1802Z"   fill="#999999" >
</path>
</svg>
